<svg width="731" height="373" viewBox="0 0 731 373" fill="none" xmlns="http://www.w3.org/2000/svg">
<rect width="731" height="373" rx="10" fill="white"/>
<rect x="0.5" y="0.5" width="730" height="372" rx="9.5" stroke="#8492A6" stroke-opacity="0.3"/>
<path d="M23.5455 201.651V200.506H29.8054C30.4517 200.506 31.0288 200.658 31.5366 200.963C32.0413 201.264 32.4399 201.691 32.7322 202.241C33.0215 202.792 33.1662 203.439 33.1662 204.18C33.1662 204.922 33.0215 205.568 32.7322 206.119C32.4399 206.67 32.0413 207.098 31.5366 207.403C31.0288 207.704 30.4517 207.855 29.8054 207.855H23.5455V206.71H29.7131C30.1747 206.71 30.5856 206.609 30.9457 206.406C31.3027 206.202 31.5843 205.913 31.7905 205.538C31.9936 205.159 32.0952 204.707 32.0952 204.18C32.0952 203.654 31.9936 203.202 31.7905 202.823C31.5843 202.445 31.3027 202.155 30.9457 201.955C30.5856 201.752 30.1747 201.651 29.7131 201.651H23.5455ZM27.4972 193.344L27.7741 194.323C27.611 194.385 27.4525 194.475 27.2987 194.595C27.1417 194.712 27.0124 194.872 26.9109 195.076C26.8093 195.279 26.7585 195.539 26.7585 195.856C26.7585 196.29 26.8585 196.651 27.0586 196.941C27.2556 197.227 27.5064 197.37 27.8111 197.37C28.0819 197.37 28.2958 197.271 28.4528 197.074C28.6097 196.878 28.7405 196.57 28.8452 196.151L29.1037 195.099C29.2576 194.465 29.493 193.992 29.81 193.681C30.1239 193.371 30.5286 193.215 31.0241 193.215C31.4304 193.215 31.7936 193.332 32.1136 193.566C32.4337 193.797 32.6861 194.12 32.8707 194.535C33.0554 194.951 33.1477 195.434 33.1477 195.985C33.1477 196.708 32.9908 197.307 32.6768 197.781C32.3629 198.255 31.9044 198.555 31.3011 198.681L31.0426 197.647C31.4242 197.548 31.7105 197.362 31.9013 197.088C32.0921 196.811 32.1875 196.45 32.1875 196.003C32.1875 195.496 32.0798 195.092 31.8643 194.794C31.6458 194.492 31.3842 194.342 31.0795 194.342C30.8333 194.342 30.6271 194.428 30.4609 194.6C30.2917 194.772 30.1655 195.037 30.0824 195.394L29.8054 196.576C29.6515 197.225 29.413 197.702 29.0898 198.007C28.7636 198.309 28.3558 198.459 27.8665 198.459C27.4664 198.459 27.1125 198.347 26.8047 198.122C26.4969 197.895 26.2553 197.585 26.0799 197.195C25.9045 196.801 25.8168 196.354 25.8168 195.856C25.8168 195.154 25.9706 194.603 26.2784 194.203C26.5862 193.8 26.9924 193.514 27.4972 193.344ZM33.1477 188.602C33.1477 189.285 32.9969 189.875 32.6953 190.37C32.3906 190.863 31.9659 191.243 31.4212 191.51C30.8733 191.775 30.2363 191.907 29.5099 191.907C28.7836 191.907 28.1435 191.775 27.5895 191.51C27.0324 191.243 26.5985 190.87 26.2876 190.393C25.9737 189.913 25.8168 189.353 25.8168 188.713C25.8168 188.344 25.8783 187.979 26.0014 187.619C26.1245 187.259 26.3246 186.931 26.6016 186.635C26.8755 186.34 27.2386 186.105 27.6911 185.929C28.1435 185.754 28.7005 185.666 29.3622 185.666H29.8239V191.132H28.8821V186.774C28.482 186.774 28.125 186.854 27.8111 187.014C27.4972 187.171 27.2494 187.396 27.0678 187.688C26.8862 187.977 26.7955 188.319 26.7955 188.713C26.7955 189.147 26.9032 189.522 27.1186 189.839C27.331 190.153 27.608 190.395 27.9496 190.564C28.2912 190.733 28.6574 190.818 29.0483 190.818H29.6761C30.2116 190.818 30.6656 190.726 31.038 190.541C31.4073 190.353 31.6889 190.093 31.8828 189.761C32.0736 189.428 32.169 189.042 32.169 188.602C32.169 188.316 32.129 188.057 32.049 187.827C31.9659 187.593 31.8428 187.391 31.6797 187.222C31.5135 187.052 31.3073 186.922 31.0611 186.829L31.3565 185.777C31.7135 185.888 32.0275 186.074 32.2983 186.335C32.5661 186.597 32.7753 186.92 32.9261 187.305C33.0739 187.69 33.1477 188.122 33.1477 188.602ZM33 184.009H25.9091V182.956H26.9801V182.882C26.6293 182.753 26.3446 182.519 26.1261 182.181C25.9076 181.842 25.7983 181.46 25.7983 181.036C25.7983 180.956 25.7998 180.856 25.8029 180.736C25.806 180.616 25.8106 180.525 25.8168 180.463H26.9247C26.9155 180.5 26.9016 180.585 26.8832 180.717C26.8616 180.846 26.8509 180.983 26.8509 181.128C26.8509 181.473 26.9232 181.78 27.0678 182.051C27.2094 182.319 27.4064 182.531 27.6587 182.688C27.908 182.842 28.1927 182.919 28.5128 182.919H33V184.009ZM27.4972 174.149L27.7741 175.128C27.611 175.189 27.4525 175.28 27.2987 175.4C27.1417 175.517 27.0124 175.677 26.9109 175.88C26.8093 176.083 26.7585 176.343 26.7585 176.66C26.7585 177.094 26.8585 177.456 27.0586 177.745C27.2556 178.032 27.5064 178.175 27.8111 178.175C28.0819 178.175 28.2958 178.076 28.4528 177.879C28.6097 177.682 28.7405 177.374 28.8452 176.956L29.1037 175.903C29.2576 175.269 29.493 174.797 29.81 174.486C30.1239 174.175 30.5286 174.02 31.0241 174.02C31.4304 174.02 31.7936 174.137 32.1136 174.371C32.4337 174.601 32.6861 174.925 32.8707 175.34C33.0554 175.756 33.1477 176.239 33.1477 176.79C33.1477 177.513 32.9908 178.112 32.6768 178.585C32.3629 179.059 31.9044 179.36 31.3011 179.486L31.0426 178.452C31.4242 178.353 31.7105 178.167 31.9013 177.893C32.0921 177.616 32.1875 177.254 32.1875 176.808C32.1875 176.3 32.0798 175.897 31.8643 175.599C31.6458 175.297 31.3842 175.146 31.0795 175.146C30.8333 175.146 30.6271 175.232 30.4609 175.405C30.2917 175.577 30.1655 175.842 30.0824 176.199L29.8054 177.381C29.6515 178.03 29.413 178.507 29.0898 178.812C28.7636 179.113 28.3558 179.264 27.8665 179.264C27.4664 179.264 27.1125 179.152 26.8047 178.927C26.4969 178.699 26.2553 178.39 26.0799 177.999C25.9045 177.605 25.8168 177.159 25.8168 176.66C25.8168 175.959 25.9706 175.408 26.2784 175.008C26.5862 174.605 26.9924 174.318 27.4972 174.149Z" fill="#201E29"/>
<path d="M358.58 351.045H359.835L360.888 352.43L361.165 352.8L362.734 354.886H361.479L360.445 353.501L360.186 353.151L358.58 351.045ZM363.122 349.273C363.122 350.27 362.942 351.132 362.582 351.858C362.222 352.584 361.728 353.144 361.1 353.538C360.472 353.932 359.755 354.129 358.949 354.129C358.143 354.129 357.425 353.932 356.798 353.538C356.17 353.144 355.676 352.584 355.316 351.858C354.956 351.132 354.776 350.27 354.776 349.273C354.776 348.276 354.956 347.414 355.316 346.688C355.676 345.961 356.17 345.401 356.798 345.007C357.425 344.613 358.143 344.416 358.949 344.416C359.755 344.416 360.472 344.613 361.1 345.007C361.728 345.401 362.222 345.961 362.582 346.688C362.942 347.414 363.122 348.276 363.122 349.273ZM362.014 349.273C362.014 348.454 361.877 347.763 361.603 347.2C361.333 346.637 360.965 346.21 360.5 345.921C360.038 345.632 359.521 345.487 358.949 345.487C358.376 345.487 357.858 345.632 357.393 345.921C356.931 346.21 356.564 346.637 356.29 347.2C356.019 347.763 355.884 348.454 355.884 349.273C355.884 350.091 356.019 350.782 356.29 351.346C356.564 351.909 356.931 352.335 357.393 352.624C357.858 352.914 358.376 353.058 358.949 353.058C359.521 353.058 360.038 352.914 360.5 352.624C360.965 352.335 361.333 351.909 361.603 351.346C361.877 350.782 362.014 350.091 362.014 349.273ZM369.368 351.101V346.909H370.458V354H369.368V352.8H369.294C369.128 353.16 368.87 353.466 368.519 353.718C368.168 353.968 367.725 354.092 367.189 354.092C366.746 354.092 366.352 353.995 366.007 353.801C365.663 353.605 365.392 353.309 365.195 352.915C364.998 352.518 364.9 352.018 364.9 351.415V346.909H365.989V351.341C365.989 351.858 366.134 352.27 366.423 352.578C366.715 352.886 367.088 353.04 367.54 353.04C367.811 353.04 368.086 352.971 368.366 352.832C368.65 352.694 368.887 352.481 369.077 352.195C369.271 351.909 369.368 351.544 369.368 351.101ZM372.453 354V346.909H373.543V354H372.453ZM373.007 345.727C372.795 345.727 372.612 345.655 372.458 345.51C372.307 345.366 372.232 345.192 372.232 344.989C372.232 344.786 372.307 344.612 372.458 344.467C372.612 344.322 372.795 344.25 373.007 344.25C373.22 344.25 373.401 344.322 373.552 344.467C373.706 344.612 373.783 344.786 373.783 344.989C373.783 345.192 373.706 345.366 373.552 345.51C373.401 345.655 373.22 345.727 373.007 345.727ZM375.335 354V353.169L379.361 347.999V347.925H375.464V346.909H380.764V347.777L376.849 352.911V352.984H380.893V354H375.335Z" fill="#201E29"/>
<path d="M106.89 319.727H107.856L108.665 320.793L108.879 321.077L110.086 322.682H109.12L108.325 321.616L108.126 321.347L106.89 319.727ZM110.384 318.364C110.384 319.131 110.246 319.794 109.969 320.352C109.692 320.911 109.312 321.342 108.829 321.645C108.346 321.948 107.794 322.099 107.174 322.099C106.554 322.099 106.002 321.948 105.519 321.645C105.036 321.342 104.656 320.911 104.379 320.352C104.102 319.794 103.964 319.131 103.964 318.364C103.964 317.597 104.102 316.934 104.379 316.375C104.656 315.816 105.036 315.385 105.519 315.082C106.002 314.779 106.554 314.628 107.174 314.628C107.794 314.628 108.346 314.779 108.829 315.082C109.312 315.385 109.692 315.816 109.969 316.375C110.246 316.934 110.384 317.597 110.384 318.364ZM109.532 318.364C109.532 317.734 109.427 317.202 109.216 316.769C109.008 316.336 108.725 316.008 108.367 315.786C108.012 315.563 107.614 315.452 107.174 315.452C106.734 315.452 106.335 315.563 105.977 315.786C105.622 316.008 105.339 316.336 105.129 316.769C104.92 317.202 104.816 317.734 104.816 318.364C104.816 318.993 104.92 319.525 105.129 319.958C105.339 320.391 105.622 320.719 105.977 320.942C106.335 321.164 106.734 321.276 107.174 321.276C107.614 321.276 108.012 321.164 108.367 320.942C108.725 320.719 109.008 320.391 109.216 319.958C109.427 319.525 109.532 318.993 109.532 318.364ZM114.294 314.727V322H113.413V315.651H113.371L111.595 316.83V315.935L113.413 314.727H114.294Z" fill="#201E29"/>
<path d="M155.687 319.727H156.653L157.462 320.793L157.675 321.077L158.883 322.682H157.917L157.121 321.616L156.923 321.347L155.687 319.727ZM159.181 318.364C159.181 319.131 159.043 319.794 158.766 320.352C158.489 320.911 158.109 321.342 157.626 321.645C157.143 321.948 156.591 322.099 155.971 322.099C155.351 322.099 154.799 321.948 154.316 321.645C153.833 321.342 153.453 320.911 153.176 320.352C152.899 319.794 152.761 319.131 152.761 318.364C152.761 317.597 152.899 316.934 153.176 316.375C153.453 315.816 153.833 315.385 154.316 315.082C154.799 314.779 155.351 314.628 155.971 314.628C156.591 314.628 157.143 314.779 157.626 315.082C158.109 315.385 158.489 315.816 158.766 316.375C159.043 316.934 159.181 317.597 159.181 318.364ZM158.329 318.364C158.329 317.734 158.223 317.202 158.013 316.769C157.804 316.336 157.522 316.008 157.164 315.786C156.809 315.563 156.411 315.452 155.971 315.452C155.531 315.452 155.132 315.563 154.774 315.786C154.419 316.008 154.136 316.336 153.925 316.769C153.717 317.202 153.613 317.734 153.613 318.364C153.613 318.993 153.717 319.525 153.925 319.958C154.136 320.391 154.419 320.719 154.774 320.942C155.132 321.164 155.531 321.276 155.971 321.276C156.411 321.276 156.809 321.164 157.164 320.942C157.522 320.719 157.804 320.391 158.013 319.958C158.223 319.525 158.329 318.993 158.329 318.364ZM160.534 322V321.361L162.935 318.733C163.216 318.425 163.448 318.158 163.631 317.93C163.813 317.701 163.948 317.485 164.036 317.284C164.125 317.08 164.17 316.867 164.17 316.645C164.17 316.389 164.109 316.168 163.986 315.981C163.865 315.794 163.699 315.649 163.489 315.548C163.278 315.446 163.041 315.395 162.778 315.395C162.499 315.395 162.255 315.453 162.047 315.569C161.841 315.683 161.681 315.842 161.567 316.048C161.456 316.254 161.401 316.496 161.401 316.773H160.562C160.562 316.347 160.661 315.973 160.857 315.651C161.054 315.329 161.321 315.078 161.66 314.898C162.001 314.718 162.383 314.628 162.807 314.628C163.233 314.628 163.611 314.718 163.94 314.898C164.269 315.078 164.527 315.32 164.714 315.626C164.901 315.931 164.994 316.271 164.994 316.645C164.994 316.912 164.946 317.174 164.849 317.43C164.754 317.683 164.588 317.966 164.352 318.278C164.117 318.589 163.792 318.967 163.375 319.415L161.741 321.162V321.219H165.122V322H160.534Z" fill="#201E29"/>
<path d="M205.531 319.727H206.496L207.306 320.793L207.519 321.077L208.727 322.682H207.761L206.965 321.616L206.766 321.347L205.531 319.727ZM209.025 318.364C209.025 319.131 208.886 319.794 208.609 320.352C208.332 320.911 207.952 321.342 207.469 321.645C206.987 321.948 206.435 322.099 205.815 322.099C205.194 322.099 204.643 321.948 204.16 321.645C203.677 321.342 203.297 320.911 203.02 320.352C202.743 319.794 202.604 319.131 202.604 318.364C202.604 317.597 202.743 316.934 203.02 316.375C203.297 315.816 203.677 315.385 204.16 315.082C204.643 314.779 205.194 314.628 205.815 314.628C206.435 314.628 206.987 314.779 207.469 315.082C207.952 315.385 208.332 315.816 208.609 316.375C208.886 316.934 209.025 317.597 209.025 318.364ZM208.173 318.364C208.173 317.734 208.067 317.202 207.857 316.769C207.648 316.336 207.365 316.008 207.008 315.786C206.653 315.563 206.255 315.452 205.815 315.452C205.374 315.452 204.975 315.563 204.618 315.786C204.263 316.008 203.98 316.336 203.769 316.769C203.561 317.202 203.457 317.734 203.457 318.364C203.457 318.993 203.561 319.525 203.769 319.958C203.98 320.391 204.263 320.719 204.618 320.942C204.975 321.164 205.374 321.276 205.815 321.276C206.255 321.276 206.653 321.164 207.008 320.942C207.365 320.719 207.648 320.391 207.857 319.958C208.067 319.525 208.173 318.993 208.173 318.364ZM212.835 322.099C212.366 322.099 211.949 322.019 211.582 321.858C211.217 321.697 210.927 321.473 210.712 321.187C210.499 320.898 210.383 320.563 210.364 320.182H211.259C211.277 320.416 211.358 320.619 211.5 320.789C211.642 320.957 211.828 321.087 212.058 321.18C212.287 321.272 212.542 321.318 212.821 321.318C213.134 321.318 213.411 321.264 213.652 321.155C213.893 321.046 214.083 320.894 214.22 320.7C214.357 320.506 214.426 320.281 214.426 320.026C214.426 319.758 214.36 319.522 214.227 319.319C214.095 319.113 213.901 318.952 213.645 318.836C213.389 318.72 213.077 318.662 212.707 318.662H212.125V317.881H212.707C212.996 317.881 213.25 317.829 213.467 317.724C213.688 317.62 213.859 317.473 213.982 317.284C214.108 317.095 214.17 316.872 214.17 316.616C214.17 316.37 214.116 316.156 214.007 315.974C213.898 315.791 213.744 315.649 213.545 315.548C213.349 315.446 213.117 315.395 212.849 315.395C212.598 315.395 212.362 315.441 212.139 315.533C211.919 315.623 211.739 315.755 211.599 315.928C211.46 316.098 211.384 316.304 211.372 316.545H210.52C210.534 316.164 210.649 315.83 210.864 315.544C211.08 315.255 211.362 315.03 211.71 314.869C212.06 314.708 212.445 314.628 212.864 314.628C213.313 314.628 213.699 314.719 214.021 314.901C214.343 315.081 214.591 315.319 214.763 315.615C214.936 315.911 215.023 316.231 215.023 316.574C215.023 316.983 214.915 317.333 214.7 317.621C214.487 317.91 214.196 318.11 213.83 318.222V318.278C214.289 318.354 214.647 318.549 214.906 318.864C215.164 319.177 215.293 319.564 215.293 320.026C215.293 320.421 215.185 320.776 214.969 321.091C214.756 321.403 214.465 321.65 214.096 321.83C213.727 322.009 213.306 322.099 212.835 322.099Z" fill="#201E29"/>
<path d="M255.506 319.727H256.472L257.282 320.793L257.495 321.077L258.702 322.682H257.736L256.941 321.616L256.742 321.347L255.506 319.727ZM259 318.364C259 319.131 258.862 319.794 258.585 320.352C258.308 320.911 257.928 321.342 257.445 321.645C256.962 321.948 256.41 322.099 255.79 322.099C255.17 322.099 254.618 321.948 254.135 321.645C253.652 321.342 253.272 320.911 252.995 320.352C252.718 319.794 252.58 319.131 252.58 318.364C252.58 317.597 252.718 316.934 252.995 316.375C253.272 315.816 253.652 315.385 254.135 315.082C254.618 314.779 255.17 314.628 255.79 314.628C256.41 314.628 256.962 314.779 257.445 315.082C257.928 315.385 258.308 315.816 258.585 316.375C258.862 316.934 259 317.597 259 318.364ZM258.148 318.364C258.148 317.734 258.043 317.202 257.832 316.769C257.624 316.336 257.341 316.008 256.983 315.786C256.628 315.563 256.231 315.452 255.79 315.452C255.35 315.452 254.951 315.563 254.593 315.786C254.238 316.008 253.955 316.336 253.745 316.769C253.536 317.202 253.432 317.734 253.432 318.364C253.432 318.993 253.536 319.525 253.745 319.958C253.955 320.391 254.238 320.719 254.593 320.942C254.951 321.164 255.35 321.276 255.79 321.276C256.231 321.276 256.628 321.164 256.983 320.942C257.341 320.719 257.624 320.391 257.832 319.958C258.043 319.525 258.148 318.993 258.148 318.364ZM260.183 320.509V319.784L263.379 314.727H263.905V315.849H263.549L261.135 319.67V319.727H265.439V320.509H260.183ZM263.606 322V320.288V319.951V314.727H264.444V322H263.606Z" fill="#201E29"/>
<path d="M305.672 319.727H306.638L307.448 320.793L307.661 321.077L308.868 322.682H307.902L307.107 321.616L306.908 321.347L305.672 319.727ZM309.166 318.364C309.166 319.131 309.028 319.794 308.751 320.352C308.474 320.911 308.094 321.342 307.611 321.645C307.128 321.948 306.576 322.099 305.956 322.099C305.336 322.099 304.784 321.948 304.301 321.645C303.818 321.342 303.438 320.911 303.161 320.352C302.884 319.794 302.746 319.131 302.746 318.364C302.746 317.597 302.884 316.934 303.161 316.375C303.438 315.816 303.818 315.385 304.301 315.082C304.784 314.779 305.336 314.628 305.956 314.628C306.576 314.628 307.128 314.779 307.611 315.082C308.094 315.385 308.474 315.816 308.751 316.375C309.028 316.934 309.166 317.597 309.166 318.364ZM308.314 318.364C308.314 317.734 308.209 317.202 307.998 316.769C307.79 316.336 307.507 316.008 307.149 315.786C306.794 315.563 306.397 315.452 305.956 315.452C305.516 315.452 305.117 315.563 304.759 315.786C304.404 316.008 304.121 316.336 303.911 316.769C303.702 317.202 303.598 317.734 303.598 318.364C303.598 318.993 303.702 319.525 303.911 319.958C304.121 320.391 304.404 320.719 304.759 320.942C305.117 321.164 305.516 321.276 305.956 321.276C306.397 321.276 306.794 321.164 307.149 320.942C307.507 320.719 307.79 320.391 307.998 319.958C308.209 319.525 308.314 318.993 308.314 318.364ZM312.792 322.099C312.376 322.099 312 322.017 311.666 321.851C311.333 321.685 311.065 321.458 310.864 321.169C310.663 320.88 310.553 320.551 310.534 320.182H311.386C311.419 320.511 311.568 320.783 311.833 320.999C312.101 321.212 312.42 321.318 312.792 321.318C313.09 321.318 313.356 321.248 313.588 321.109C313.822 320.969 314.005 320.777 314.138 320.533C314.273 320.287 314.34 320.009 314.34 319.699C314.34 319.382 314.271 319.099 314.131 318.85C313.994 318.599 313.804 318.402 313.563 318.257C313.321 318.113 313.045 318.039 312.735 318.037C312.513 318.035 312.284 318.069 312.05 318.14C311.816 318.209 311.623 318.297 311.471 318.406L310.647 318.307L311.088 314.727H314.866V315.509H311.826L311.571 317.653H311.613C311.762 317.535 311.949 317.437 312.174 317.359C312.399 317.281 312.634 317.241 312.877 317.241C313.322 317.241 313.719 317.348 314.067 317.561C314.417 317.772 314.692 318.061 314.891 318.428C315.092 318.795 315.193 319.214 315.193 319.685C315.193 320.149 315.089 320.563 314.88 320.928C314.674 321.29 314.39 321.576 314.028 321.787C313.666 321.995 313.254 322.099 312.792 322.099Z" fill="#201E29"/>
<path d="M355.594 319.727H356.56L357.37 320.793L357.583 321.077L358.79 322.682H357.824L357.029 321.616L356.83 321.347L355.594 319.727ZM359.088 318.364C359.088 319.131 358.95 319.794 358.673 320.352C358.396 320.911 358.016 321.342 357.533 321.645C357.05 321.948 356.498 322.099 355.878 322.099C355.258 322.099 354.706 321.948 354.223 321.645C353.74 321.342 353.36 320.911 353.083 320.352C352.806 319.794 352.668 319.131 352.668 318.364C352.668 317.597 352.806 316.934 353.083 316.375C353.36 315.816 353.74 315.385 354.223 315.082C354.706 314.779 355.258 314.628 355.878 314.628C356.498 314.628 357.05 314.779 357.533 315.082C358.016 315.385 358.396 315.816 358.673 316.375C358.95 316.934 359.088 317.597 359.088 318.364ZM358.236 318.364C358.236 317.734 358.131 317.202 357.92 316.769C357.712 316.336 357.429 316.008 357.071 315.786C356.716 315.563 356.318 315.452 355.878 315.452C355.438 315.452 355.039 315.563 354.681 315.786C354.326 316.008 354.043 316.336 353.833 316.769C353.624 317.202 353.52 317.734 353.52 318.364C353.52 318.993 353.624 319.525 353.833 319.958C354.043 320.391 354.326 320.719 354.681 320.942C355.039 321.164 355.438 321.276 355.878 321.276C356.318 321.276 356.716 321.164 357.071 320.942C357.429 320.719 357.712 320.391 357.92 319.958C358.131 319.525 358.236 318.993 358.236 318.364ZM362.856 322.099C362.558 322.095 362.259 322.038 361.961 321.929C361.663 321.82 361.391 321.637 361.144 321.379C360.898 321.118 360.701 320.767 360.551 320.324C360.402 319.879 360.328 319.32 360.328 318.648C360.328 318.004 360.388 317.433 360.509 316.936C360.63 316.437 360.805 316.016 361.034 315.675C361.264 315.332 361.541 315.072 361.865 314.894C362.192 314.717 362.56 314.628 362.97 314.628C363.377 314.628 363.739 314.71 364.056 314.873C364.376 315.034 364.636 315.259 364.838 315.548C365.039 315.836 365.169 316.169 365.228 316.545H364.362C364.281 316.219 364.125 315.948 363.893 315.732C363.661 315.517 363.353 315.409 362.97 315.409C362.406 315.409 361.962 315.654 361.638 316.144C361.316 316.634 361.154 317.322 361.152 318.207H361.208C361.341 318.006 361.498 317.835 361.681 317.692C361.865 317.548 362.069 317.437 362.291 317.359C362.514 317.281 362.75 317.241 362.998 317.241C363.415 317.241 363.796 317.346 364.142 317.554C364.487 317.76 364.764 318.045 364.973 318.41C365.181 318.772 365.285 319.188 365.285 319.656C365.285 320.106 365.184 320.518 364.983 320.892C364.782 321.264 364.499 321.56 364.134 321.78C363.772 321.998 363.346 322.104 362.856 322.099ZM362.856 321.318C363.154 321.318 363.422 321.244 363.659 321.094C363.898 320.945 364.086 320.745 364.223 320.494C364.363 320.243 364.433 319.964 364.433 319.656C364.433 319.356 364.365 319.082 364.23 318.836C364.098 318.587 363.914 318.39 363.68 318.243C363.448 318.096 363.183 318.023 362.884 318.023C362.66 318.023 362.45 318.068 362.256 318.158C362.062 318.245 361.891 318.366 361.745 318.52C361.6 318.674 361.487 318.85 361.404 319.049C361.321 319.246 361.279 319.453 361.279 319.67C361.279 319.959 361.347 320.229 361.482 320.48C361.619 320.731 361.806 320.933 362.043 321.087C362.282 321.241 362.553 321.318 362.856 321.318Z" fill="#201E29"/>
<path d="M405.858 319.727H406.824L407.633 320.793L407.846 321.077L409.054 322.682H408.088L407.292 321.616L407.093 321.347L405.858 319.727ZM409.352 318.364C409.352 319.131 409.214 319.794 408.937 320.352C408.66 320.911 408.28 321.342 407.797 321.645C407.314 321.948 406.762 322.099 406.142 322.099C405.522 322.099 404.97 321.948 404.487 321.645C404.004 321.342 403.624 320.911 403.347 320.352C403.07 319.794 402.932 319.131 402.932 318.364C402.932 317.597 403.07 316.934 403.347 316.375C403.624 315.816 404.004 315.385 404.487 315.082C404.97 314.779 405.522 314.628 406.142 314.628C406.762 314.628 407.314 314.779 407.797 315.082C408.28 315.385 408.66 315.816 408.937 316.375C409.214 316.934 409.352 317.597 409.352 318.364ZM408.5 318.364C408.5 317.734 408.394 317.202 408.184 316.769C407.975 316.336 407.692 316.008 407.335 315.786C406.98 315.563 406.582 315.452 406.142 315.452C405.701 315.452 405.303 315.563 404.945 315.786C404.59 316.008 404.307 316.336 404.096 316.769C403.888 317.202 403.784 317.734 403.784 318.364C403.784 318.993 403.888 319.525 404.096 319.958C404.307 320.391 404.59 320.719 404.945 320.942C405.303 321.164 405.701 321.276 406.142 321.276C406.582 321.276 406.98 321.164 407.335 320.942C407.692 320.719 407.975 320.391 408.184 319.958C408.394 319.525 408.5 318.993 408.5 318.364ZM410.932 322L414.185 315.565V315.509H410.435V314.727H415.094V315.551L411.856 322H410.932Z" fill="#201E29"/>
<path d="M455.633 319.727H456.599L457.409 320.793L457.622 321.077L458.829 322.682H457.863L457.068 321.616L456.869 321.347L455.633 319.727ZM459.127 318.364C459.127 319.131 458.989 319.794 458.712 320.352C458.435 320.911 458.055 321.342 457.572 321.645C457.089 321.948 456.537 322.099 455.917 322.099C455.297 322.099 454.745 321.948 454.262 321.645C453.779 321.342 453.399 320.911 453.122 320.352C452.845 319.794 452.707 319.131 452.707 318.364C452.707 317.597 452.845 316.934 453.122 316.375C453.399 315.816 453.779 315.385 454.262 315.082C454.745 314.779 455.297 314.628 455.917 314.628C456.537 314.628 457.089 314.779 457.572 315.082C458.055 315.385 458.435 315.816 458.712 316.375C458.989 316.934 459.127 317.597 459.127 318.364ZM458.275 318.364C458.275 317.734 458.17 317.202 457.959 316.769C457.751 316.336 457.468 316.008 457.11 315.786C456.755 315.563 456.358 315.452 455.917 315.452C455.477 315.452 455.078 315.563 454.72 315.786C454.365 316.008 454.082 316.336 453.872 316.769C453.663 317.202 453.559 317.734 453.559 318.364C453.559 318.993 453.663 319.525 453.872 319.958C454.082 320.391 454.365 320.719 454.72 320.942C455.078 321.164 455.477 321.276 455.917 321.276C456.358 321.276 456.755 321.164 457.11 320.942C457.468 320.719 457.751 320.391 457.959 319.958C458.17 319.525 458.275 318.993 458.275 318.364ZM462.81 322.099C462.322 322.099 461.891 322.013 461.517 321.84C461.146 321.665 460.856 321.425 460.647 321.119C460.439 320.812 460.336 320.461 460.338 320.068C460.336 319.76 460.396 319.476 460.519 319.216C460.643 318.953 460.811 318.734 461.024 318.559C461.239 318.381 461.479 318.269 461.745 318.222V318.179C461.397 318.089 461.12 317.894 460.914 317.593C460.708 317.29 460.606 316.946 460.608 316.56C460.606 316.19 460.699 315.86 460.889 315.569C461.078 315.278 461.339 315.048 461.67 314.88C462.004 314.712 462.384 314.628 462.81 314.628C463.231 314.628 463.608 314.712 463.939 314.88C464.271 315.048 464.531 315.278 464.72 315.569C464.912 315.86 465.009 316.19 465.012 316.56C465.009 316.946 464.904 317.29 464.696 317.593C464.49 317.894 464.216 318.089 463.875 318.179V318.222C464.138 318.269 464.375 318.381 464.585 318.559C464.796 318.734 464.964 318.953 465.09 319.216C465.215 319.476 465.279 319.76 465.282 320.068C465.279 320.461 465.173 320.812 464.962 321.119C464.754 321.425 464.464 321.665 464.092 321.84C463.723 322.013 463.295 322.099 462.81 322.099ZM462.81 321.318C463.139 321.318 463.423 321.265 463.662 321.158C463.901 321.052 464.086 320.902 464.216 320.707C464.346 320.513 464.413 320.286 464.415 320.026C464.413 319.751 464.342 319.508 464.202 319.298C464.062 319.087 463.872 318.921 463.63 318.8C463.391 318.68 463.118 318.619 462.81 318.619C462.5 318.619 462.223 318.68 461.979 318.8C461.737 318.921 461.547 319.087 461.407 319.298C461.27 319.508 461.202 319.751 461.205 320.026C461.202 320.286 461.265 320.513 461.393 320.707C461.523 320.902 461.709 321.052 461.951 321.158C462.192 321.265 462.478 321.318 462.81 321.318ZM462.81 317.866C463.07 317.866 463.301 317.814 463.502 317.71C463.706 317.606 463.866 317.46 463.982 317.273C464.098 317.086 464.157 316.867 464.159 316.616C464.157 316.37 464.099 316.156 463.985 315.974C463.872 315.789 463.714 315.647 463.513 315.548C463.312 315.446 463.077 315.395 462.81 315.395C462.538 315.395 462.3 315.446 462.096 315.548C461.893 315.647 461.735 315.789 461.624 315.974C461.513 316.156 461.458 316.37 461.46 316.616C461.458 316.867 461.514 317.086 461.627 317.273C461.743 317.46 461.903 317.606 462.107 317.71C462.31 317.814 462.545 317.866 462.81 317.866Z" fill="#201E29"/>
<path d="M505.594 319.727H506.56L507.37 320.793L507.583 321.077L508.79 322.682H507.824L507.029 321.616L506.83 321.347L505.594 319.727ZM509.088 318.364C509.088 319.131 508.95 319.794 508.673 320.352C508.396 320.911 508.016 321.342 507.533 321.645C507.05 321.948 506.498 322.099 505.878 322.099C505.258 322.099 504.706 321.948 504.223 321.645C503.74 321.342 503.36 320.911 503.083 320.352C502.806 319.794 502.668 319.131 502.668 318.364C502.668 317.597 502.806 316.934 503.083 316.375C503.36 315.816 503.74 315.385 504.223 315.082C504.706 314.779 505.258 314.628 505.878 314.628C506.498 314.628 507.05 314.779 507.533 315.082C508.016 315.385 508.396 315.816 508.673 316.375C508.95 316.934 509.088 317.597 509.088 318.364ZM508.236 318.364C508.236 317.734 508.131 317.202 507.92 316.769C507.712 316.336 507.429 316.008 507.071 315.786C506.716 315.563 506.318 315.452 505.878 315.452C505.438 315.452 505.039 315.563 504.681 315.786C504.326 316.008 504.043 316.336 503.833 316.769C503.624 317.202 503.52 317.734 503.52 318.364C503.52 318.993 503.624 319.525 503.833 319.958C504.043 320.391 504.326 320.719 504.681 320.942C505.039 321.164 505.438 321.276 505.878 321.276C506.318 321.276 506.716 321.164 507.071 320.942C507.429 320.719 507.712 320.391 507.92 319.958C508.131 319.525 508.236 318.993 508.236 318.364ZM512.757 314.628C513.055 314.63 513.353 314.687 513.652 314.798C513.95 314.91 514.222 315.094 514.468 315.352C514.715 315.608 514.912 315.957 515.061 316.4C515.21 316.843 515.285 317.398 515.285 318.065C515.285 318.712 515.224 319.286 515.1 319.788C514.98 320.287 514.804 320.709 514.575 321.052C514.348 321.395 514.071 321.656 513.744 321.833C513.42 322.011 513.053 322.099 512.643 322.099C512.236 322.099 511.872 322.019 511.553 321.858C511.236 321.695 510.975 321.469 510.772 321.18C510.57 320.888 510.441 320.551 510.384 320.168H511.251C511.329 320.501 511.484 320.777 511.716 320.995C511.951 321.21 512.259 321.318 512.643 321.318C513.204 321.318 513.647 321.073 513.971 320.583C514.298 320.093 514.461 319.401 514.461 318.506H514.404C514.272 318.705 514.114 318.876 513.932 319.021C513.75 319.165 513.547 319.276 513.325 319.354C513.102 319.433 512.866 319.472 512.615 319.472C512.198 319.472 511.816 319.369 511.468 319.163C511.122 318.954 510.845 318.669 510.637 318.307C510.431 317.942 510.328 317.526 510.328 317.057C510.328 316.612 510.427 316.205 510.626 315.835C510.827 315.464 511.109 315.168 511.471 314.947C511.836 314.727 512.264 314.621 512.757 314.628ZM512.757 315.409C512.458 315.409 512.19 315.484 511.951 315.633C511.714 315.78 511.526 315.978 511.386 316.229C511.249 316.478 511.18 316.754 511.18 317.057C511.18 317.36 511.246 317.636 511.379 317.884C511.514 318.13 511.697 318.327 511.929 318.474C512.164 318.618 512.43 318.69 512.728 318.69C512.953 318.69 513.163 318.647 513.357 318.559C513.551 318.469 513.72 318.347 513.865 318.193C514.011 318.037 514.126 317.861 514.209 317.664C514.292 317.465 514.333 317.258 514.333 317.043C514.333 316.759 514.265 316.492 514.127 316.244C513.992 315.995 513.805 315.794 513.566 315.64C513.33 315.486 513.06 315.409 512.757 315.409Z" fill="#201E29"/>
<path d="M553.265 319.727H554.231L555.04 320.793L555.254 321.077L556.461 322.682H555.495L554.7 321.616L554.501 321.347L553.265 319.727ZM556.759 318.364C556.759 319.131 556.621 319.794 556.344 320.352C556.067 320.911 555.687 321.342 555.204 321.645C554.721 321.948 554.169 322.099 553.549 322.099C552.929 322.099 552.377 321.948 551.894 321.645C551.411 321.342 551.031 320.911 550.754 320.352C550.477 319.794 550.339 319.131 550.339 318.364C550.339 317.597 550.477 316.934 550.754 316.375C551.031 315.816 551.411 315.385 551.894 315.082C552.377 314.779 552.929 314.628 553.549 314.628C554.169 314.628 554.721 314.779 555.204 315.082C555.687 315.385 556.067 315.816 556.344 316.375C556.621 316.934 556.759 317.597 556.759 318.364ZM555.907 318.364C555.907 317.734 555.802 317.202 555.591 316.769C555.383 316.336 555.1 316.008 554.742 315.786C554.387 315.563 553.989 315.452 553.549 315.452C553.109 315.452 552.71 315.563 552.352 315.786C551.997 316.008 551.714 316.336 551.504 316.769C551.295 317.202 551.191 317.734 551.191 318.364C551.191 318.993 551.295 319.525 551.504 319.958C551.714 320.391 551.997 320.719 552.352 320.942C552.71 321.164 553.109 321.276 553.549 321.276C553.989 321.276 554.387 321.164 554.742 320.942C555.1 320.719 555.383 320.391 555.591 319.958C555.802 319.525 555.907 318.993 555.907 318.364ZM560.669 314.727V322H559.788V315.651H559.746L557.97 316.83V315.935L559.788 314.727H560.669ZM565.133 322.099C564.598 322.099 564.142 321.954 563.766 321.663C563.389 321.369 563.102 320.944 562.903 320.388C562.704 319.829 562.604 319.154 562.604 318.364C562.604 317.578 562.704 316.906 562.903 316.35C563.104 315.791 563.393 315.365 563.769 315.072C564.148 314.776 564.603 314.628 565.133 314.628C565.663 314.628 566.116 314.776 566.493 315.072C566.872 315.365 567.161 315.791 567.359 316.35C567.561 316.906 567.661 317.578 567.661 318.364C567.661 319.154 567.562 319.829 567.363 320.388C567.164 320.944 566.876 321.369 566.5 321.663C566.124 321.954 565.668 322.099 565.133 322.099ZM565.133 321.318C565.663 321.318 566.075 321.062 566.369 320.551C566.662 320.04 566.809 319.311 566.809 318.364C566.809 317.734 566.741 317.198 566.607 316.755C566.474 316.312 566.282 315.975 566.031 315.743C565.783 315.511 565.483 315.395 565.133 315.395C564.607 315.395 564.196 315.654 563.901 316.173C563.605 316.689 563.457 317.419 563.457 318.364C563.457 318.993 563.523 319.528 563.656 319.969C563.788 320.409 563.979 320.744 564.227 320.974C564.478 321.203 564.78 321.318 565.133 321.318Z" fill="#201E29"/>
<path d="M604.066 319.727H605.032L605.841 320.793L606.054 321.077L607.262 322.682H606.296L605.5 321.616L605.301 321.347L604.066 319.727ZM607.56 318.364C607.56 319.131 607.422 319.794 607.145 320.352C606.868 320.911 606.488 321.342 606.005 321.645C605.522 321.948 604.97 322.099 604.35 322.099C603.73 322.099 603.178 321.948 602.695 321.645C602.212 321.342 601.832 320.911 601.555 320.352C601.278 319.794 601.14 319.131 601.14 318.364C601.14 317.597 601.278 316.934 601.555 316.375C601.832 315.816 602.212 315.385 602.695 315.082C603.178 314.779 603.73 314.628 604.35 314.628C604.97 314.628 605.522 314.779 606.005 315.082C606.488 315.385 606.868 315.816 607.145 316.375C607.422 316.934 607.56 317.597 607.56 318.364ZM606.708 318.364C606.708 317.734 606.602 317.202 606.392 316.769C606.183 316.336 605.9 316.008 605.543 315.786C605.188 315.563 604.79 315.452 604.35 315.452C603.909 315.452 603.511 315.563 603.153 315.786C602.798 316.008 602.515 316.336 602.304 316.769C602.096 317.202 601.992 317.734 601.992 318.364C601.992 318.993 602.096 319.525 602.304 319.958C602.515 320.391 602.798 320.719 603.153 320.942C603.511 321.164 603.909 321.276 604.35 321.276C604.79 321.276 605.188 321.164 605.543 320.942C605.9 320.719 606.183 320.391 606.392 319.958C606.602 319.525 606.708 318.993 606.708 318.364ZM611.47 314.727V322H610.589V315.651H610.547L608.771 316.83V315.935L610.589 314.727H611.47ZM616.118 314.727V322H615.238V315.651H615.195L613.419 316.83V315.935L615.238 314.727H616.118Z" fill="#201E29"/>
<path d="M653.363 319.727H654.328L655.138 320.793L655.351 321.077L656.559 322.682H655.593L654.797 321.616L654.598 321.347L653.363 319.727ZM656.857 318.364C656.857 319.131 656.718 319.794 656.441 320.352C656.164 320.911 655.784 321.342 655.301 321.645C654.819 321.948 654.267 322.099 653.647 322.099C653.026 322.099 652.475 321.948 651.992 321.645C651.509 321.342 651.129 320.911 650.852 320.352C650.575 319.794 650.436 319.131 650.436 318.364C650.436 317.597 650.575 316.934 650.852 316.375C651.129 315.816 651.509 315.385 651.992 315.082C652.475 314.779 653.026 314.628 653.647 314.628C654.267 314.628 654.819 314.779 655.301 315.082C655.784 315.385 656.164 315.816 656.441 316.375C656.718 316.934 656.857 317.597 656.857 318.364ZM656.005 318.364C656.005 317.734 655.899 317.202 655.689 316.769C655.48 316.336 655.197 316.008 654.84 315.786C654.485 315.563 654.087 315.452 653.647 315.452C653.206 315.452 652.807 315.563 652.45 315.786C652.095 316.008 651.812 316.336 651.601 316.769C651.393 317.202 651.289 317.734 651.289 318.364C651.289 318.993 651.393 319.525 651.601 319.958C651.812 320.391 652.095 320.719 652.45 320.942C652.807 321.164 653.206 321.276 653.647 321.276C654.087 321.276 654.485 321.164 654.84 320.942C655.197 320.719 655.48 320.391 655.689 319.958C655.899 319.525 656.005 318.993 656.005 318.364ZM660.767 314.727V322H659.886V315.651H659.843L658.068 316.83V315.935L659.886 314.727H660.767ZM662.858 322V321.361L665.259 318.733C665.541 318.425 665.773 318.158 665.955 317.93C666.137 317.701 666.272 317.485 666.36 317.284C666.45 317.08 666.495 316.867 666.495 316.645C666.495 316.389 666.433 316.168 666.31 315.981C666.189 315.794 666.024 315.649 665.813 315.548C665.602 315.446 665.365 315.395 665.103 315.395C664.823 315.395 664.579 315.453 664.371 315.569C664.165 315.683 664.005 315.842 663.892 316.048C663.78 316.254 663.725 316.496 663.725 316.773H662.887C662.887 316.347 662.985 315.973 663.181 315.651C663.378 315.329 663.645 315.078 663.984 314.898C664.325 314.718 664.707 314.628 665.131 314.628C665.557 314.628 665.935 314.718 666.264 314.898C666.593 315.078 666.851 315.32 667.038 315.626C667.225 315.931 667.319 316.271 667.319 316.645C667.319 316.912 667.27 317.174 667.173 317.43C667.078 317.683 666.913 317.966 666.676 318.278C666.441 318.589 666.116 318.967 665.699 319.415L664.066 321.162V321.219H667.446V322H662.858Z" fill="#201E29"/>
<path d="M97.5 245.5C97.5 245.5 132.384 230.925 156 230C198.865 228.321 215.711 266.435 258.5 269.5C314.054 273.48 338.913 233.221 394 225C476.749 212.651 528.063 275.729 607 248C642.261 235.614 689.5 199.5 689.5 199.5" stroke="#E6BE7C" stroke-width="2"/>
<path d="M72.875 302.099C72.34 302.099 71.8842 301.954 71.5078 301.663C71.1314 301.369 70.8438 300.944 70.6449 300.388C70.446 299.829 70.3466 299.154 70.3466 298.364C70.3466 297.578 70.446 296.906 70.6449 296.35C70.8461 295.791 71.1349 295.365 71.5114 295.072C71.8902 294.776 72.3447 294.628 72.875 294.628C73.4053 294.628 73.8587 294.776 74.2351 295.072C74.6139 295.365 74.9027 295.791 75.1016 296.35C75.3028 296.906 75.4034 297.578 75.4034 298.364C75.4034 299.154 75.304 299.829 75.1051 300.388C74.9062 300.944 74.6186 301.369 74.2422 301.663C73.8658 301.954 73.41 302.099 72.875 302.099ZM72.875 301.318C73.4053 301.318 73.8172 301.062 74.1108 300.551C74.4044 300.04 74.5511 299.311 74.5511 298.364C74.5511 297.734 74.4837 297.198 74.3487 296.755C74.2161 296.312 74.0244 295.975 73.7734 295.743C73.5249 295.511 73.2254 295.395 72.875 295.395C72.3494 295.395 71.9387 295.654 71.6428 296.173C71.3468 296.689 71.1989 297.419 71.1989 298.364C71.1989 298.993 71.2652 299.528 71.3977 299.969C71.5303 300.409 71.7209 300.744 71.9695 300.974C72.2204 301.203 72.5223 301.318 72.875 301.318Z" fill="#201E29"/>
<line x1="84" y1="297.5" x2="715" y2="297.5" stroke="#8492A6" stroke-opacity="0.3"/>
<path d="M60.4416 264.099C60.0249 264.099 59.6497 264.017 59.3159 263.851C58.9821 263.685 58.7145 263.458 58.5133 263.169C58.3121 262.88 58.202 262.551 58.1831 262.182H59.0353C59.0685 262.511 59.2176 262.783 59.4828 262.999C59.7503 263.212 60.0699 263.318 60.4416 263.318C60.7399 263.318 61.005 263.248 61.237 263.109C61.4714 262.969 61.6549 262.777 61.7875 262.533C61.9224 262.287 61.9899 262.009 61.9899 261.699C61.9899 261.382 61.92 261.099 61.7804 260.85C61.6431 260.599 61.4537 260.402 61.2122 260.257C60.9707 260.113 60.6949 260.039 60.3848 260.037C60.1622 260.035 59.9338 260.069 59.6994 260.14C59.465 260.209 59.2721 260.297 59.1206 260.406L58.2967 260.307L58.737 256.727H62.5154V257.509H59.4757L59.22 259.653H59.2626C59.4118 259.535 59.5988 259.437 59.8237 259.359C60.0486 259.281 60.283 259.241 60.5268 259.241C60.9719 259.241 61.3684 259.348 61.7164 259.561C62.0668 259.772 62.3414 260.061 62.5403 260.428C62.7415 260.795 62.8422 261.214 62.8422 261.685C62.8422 262.149 62.738 262.563 62.5297 262.928C62.3237 263.29 62.0396 263.576 61.6774 263.787C61.3152 263.995 60.9032 264.099 60.4416 264.099ZM66.625 264.099C66.09 264.099 65.6342 263.954 65.2578 263.663C64.8814 263.369 64.5938 262.944 64.3949 262.388C64.196 261.829 64.0966 261.154 64.0966 260.364C64.0966 259.578 64.196 258.906 64.3949 258.35C64.5961 257.791 64.8849 257.365 65.2614 257.072C65.6402 256.776 66.0947 256.628 66.625 256.628C67.1553 256.628 67.6087 256.776 67.9851 257.072C68.3639 257.365 68.6527 257.791 68.8516 258.35C69.0528 258.906 69.1534 259.578 69.1534 260.364C69.1534 261.154 69.054 261.829 68.8551 262.388C68.6562 262.944 68.3686 263.369 67.9922 263.663C67.6158 263.954 67.16 264.099 66.625 264.099ZM66.625 263.318C67.1553 263.318 67.5672 263.062 67.8608 262.551C68.1544 262.04 68.3011 261.311 68.3011 260.364C68.3011 259.734 68.2337 259.198 68.0987 258.755C67.9661 258.312 67.7744 257.975 67.5234 257.743C67.2749 257.511 66.9754 257.395 66.625 257.395C66.0994 257.395 65.6887 257.654 65.3928 258.173C65.0968 258.689 64.9489 259.419 64.9489 260.364C64.9489 260.993 65.0152 261.528 65.1477 261.969C65.2803 262.409 65.4709 262.744 65.7195 262.974C65.9704 263.203 66.2723 263.318 66.625 263.318ZM72.875 264.099C72.34 264.099 71.8842 263.954 71.5078 263.663C71.1314 263.369 70.8438 262.944 70.6449 262.388C70.446 261.829 70.3466 261.154 70.3466 260.364C70.3466 259.578 70.446 258.906 70.6449 258.35C70.8461 257.791 71.1349 257.365 71.5114 257.072C71.8902 256.776 72.3447 256.628 72.875 256.628C73.4053 256.628 73.8587 256.776 74.2351 257.072C74.6139 257.365 74.9027 257.791 75.1016 258.35C75.3028 258.906 75.4034 259.578 75.4034 260.364C75.4034 261.154 75.304 261.829 75.1051 262.388C74.9062 262.944 74.6186 263.369 74.2422 263.663C73.8658 263.954 73.41 264.099 72.875 264.099ZM72.875 263.318C73.4053 263.318 73.8172 263.062 74.1108 262.551C74.4044 262.04 74.5511 261.311 74.5511 260.364C74.5511 259.734 74.4837 259.198 74.3487 258.755C74.2161 258.312 74.0244 257.975 73.7734 257.743C73.5249 257.511 73.2254 257.395 72.875 257.395C72.3494 257.395 71.9387 257.654 71.6428 258.173C71.3468 258.689 71.1989 259.419 71.1989 260.364C71.1989 260.993 71.2652 261.528 71.3977 261.969C71.5303 262.409 71.7209 262.744 71.9695 262.974C72.2204 263.203 72.5223 263.318 72.875 263.318Z" fill="#201E29"/>
<line x1="84" y1="259.5" x2="715" y2="259.5" stroke="#8492A6" stroke-opacity="0.3"/>
<path d="M55.9112 218.727V226H55.0305V219.651H54.9879L53.2124 220.83V219.935L55.0305 218.727H55.9112ZM60.375 226.099C59.84 226.099 59.3842 225.954 59.0078 225.663C58.6314 225.369 58.3438 224.944 58.1449 224.388C57.946 223.829 57.8466 223.154 57.8466 222.364C57.8466 221.578 57.946 220.906 58.1449 220.35C58.3461 219.791 58.6349 219.365 59.0114 219.072C59.3902 218.776 59.8447 218.628 60.375 218.628C60.9053 218.628 61.3587 218.776 61.7351 219.072C62.1139 219.365 62.4027 219.791 62.6016 220.35C62.8028 220.906 62.9034 221.578 62.9034 222.364C62.9034 223.154 62.804 223.829 62.6051 224.388C62.4062 224.944 62.1186 225.369 61.7422 225.663C61.3658 225.954 60.91 226.099 60.375 226.099ZM60.375 225.318C60.9053 225.318 61.3172 225.062 61.6108 224.551C61.9044 224.04 62.0511 223.311 62.0511 222.364C62.0511 221.734 61.9837 221.198 61.8487 220.755C61.7161 220.312 61.5244 219.975 61.2734 219.743C61.0249 219.511 60.7254 219.395 60.375 219.395C59.8494 219.395 59.4387 219.654 59.1428 220.173C58.8468 220.689 58.6989 221.419 58.6989 222.364C58.6989 222.993 58.7652 223.528 58.8977 223.969C59.0303 224.409 59.2209 224.744 59.4695 224.974C59.7204 225.203 60.0223 225.318 60.375 225.318ZM66.625 226.099C66.09 226.099 65.6342 225.954 65.2578 225.663C64.8814 225.369 64.5938 224.944 64.3949 224.388C64.196 223.829 64.0966 223.154 64.0966 222.364C64.0966 221.578 64.196 220.906 64.3949 220.35C64.5961 219.791 64.8849 219.365 65.2614 219.072C65.6402 218.776 66.0947 218.628 66.625 218.628C67.1553 218.628 67.6087 218.776 67.9851 219.072C68.3639 219.365 68.6527 219.791 68.8516 220.35C69.0528 220.906 69.1534 221.578 69.1534 222.364C69.1534 223.154 69.054 223.829 68.8551 224.388C68.6562 224.944 68.3686 225.369 67.9922 225.663C67.6158 225.954 67.16 226.099 66.625 226.099ZM66.625 225.318C67.1553 225.318 67.5672 225.062 67.8608 224.551C68.1544 224.04 68.3011 223.311 68.3011 222.364C68.3011 221.734 68.2337 221.198 68.0987 220.755C67.9661 220.312 67.7744 219.975 67.5234 219.743C67.2749 219.511 66.9754 219.395 66.625 219.395C66.0994 219.395 65.6887 219.654 65.3928 220.173C65.0968 220.689 64.9489 221.419 64.9489 222.364C64.9489 222.993 65.0152 223.528 65.1477 223.969C65.2803 224.409 65.4709 224.744 65.7195 224.974C65.9704 225.203 66.2723 225.318 66.625 225.318ZM72.875 226.099C72.34 226.099 71.8842 225.954 71.5078 225.663C71.1314 225.369 70.8438 224.944 70.6449 224.388C70.446 223.829 70.3466 223.154 70.3466 222.364C70.3466 221.578 70.446 220.906 70.6449 220.35C70.8461 219.791 71.1349 219.365 71.5114 219.072C71.8902 218.776 72.3447 218.628 72.875 218.628C73.4053 218.628 73.8587 218.776 74.2351 219.072C74.6139 219.365 74.9027 219.791 75.1016 220.35C75.3028 220.906 75.4034 221.578 75.4034 222.364C75.4034 223.154 75.304 223.829 75.1051 224.388C74.9062 224.944 74.6186 225.369 74.2422 225.663C73.8658 225.954 73.41 226.099 72.875 226.099ZM72.875 225.318C73.4053 225.318 73.8172 225.062 74.1108 224.551C74.4044 224.04 74.5511 223.311 74.5511 222.364C74.5511 221.734 74.4837 221.198 74.3487 220.755C74.2161 220.312 74.0244 219.975 73.7734 219.743C73.5249 219.511 73.2254 219.395 72.875 219.395C72.3494 219.395 71.9387 219.654 71.6428 220.173C71.3468 220.689 71.1989 221.419 71.1989 222.364C71.1989 222.993 71.2652 223.528 71.3977 223.969C71.5303 224.409 71.7209 224.744 71.9695 224.974C72.2204 225.203 72.5223 225.318 72.875 225.318Z" fill="#201E29"/>
<line x1="84" y1="221.5" x2="715" y2="221.5" stroke="#8492A6" stroke-opacity="0.3"/>
<path d="M56.0772 180.727V188H55.1966V181.651H55.1539L53.3784 182.83V181.935L55.1966 180.727H56.0772ZM60.4416 188.099C60.0249 188.099 59.6497 188.017 59.3159 187.851C58.9821 187.685 58.7145 187.458 58.5133 187.169C58.3121 186.88 58.202 186.551 58.1831 186.182H59.0353C59.0685 186.511 59.2176 186.783 59.4828 186.999C59.7503 187.212 60.0699 187.318 60.4416 187.318C60.7399 187.318 61.005 187.248 61.237 187.109C61.4714 186.969 61.6549 186.777 61.7875 186.533C61.9224 186.287 61.9899 186.009 61.9899 185.699C61.9899 185.382 61.92 185.099 61.7804 184.85C61.6431 184.599 61.4537 184.402 61.2122 184.257C60.9707 184.113 60.6949 184.039 60.3848 184.037C60.1622 184.035 59.9338 184.069 59.6994 184.14C59.465 184.209 59.2721 184.297 59.1206 184.406L58.2967 184.307L58.737 180.727H62.5154V181.509H59.4757L59.22 183.653H59.2626C59.4118 183.535 59.5988 183.437 59.8237 183.359C60.0486 183.281 60.283 183.241 60.5268 183.241C60.9719 183.241 61.3684 183.348 61.7164 183.561C62.0668 183.772 62.3414 184.061 62.5403 184.428C62.7415 184.795 62.8422 185.214 62.8422 185.685C62.8422 186.149 62.738 186.563 62.5297 186.928C62.3237 187.29 62.0396 187.576 61.6774 187.787C61.3152 187.995 60.9032 188.099 60.4416 188.099ZM66.625 188.099C66.09 188.099 65.6342 187.954 65.2578 187.663C64.8814 187.369 64.5938 186.944 64.3949 186.388C64.196 185.829 64.0966 185.154 64.0966 184.364C64.0966 183.578 64.196 182.906 64.3949 182.35C64.5961 181.791 64.8849 181.365 65.2614 181.072C65.6402 180.776 66.0947 180.628 66.625 180.628C67.1553 180.628 67.6087 180.776 67.9851 181.072C68.3639 181.365 68.6527 181.791 68.8516 182.35C69.0528 182.906 69.1534 183.578 69.1534 184.364C69.1534 185.154 69.054 185.829 68.8551 186.388C68.6562 186.944 68.3686 187.369 67.9922 187.663C67.6158 187.954 67.16 188.099 66.625 188.099ZM66.625 187.318C67.1553 187.318 67.5672 187.062 67.8608 186.551C68.1544 186.04 68.3011 185.311 68.3011 184.364C68.3011 183.734 68.2337 183.198 68.0987 182.755C67.9661 182.312 67.7744 181.975 67.5234 181.743C67.2749 181.511 66.9754 181.395 66.625 181.395C66.0994 181.395 65.6887 181.654 65.3928 182.173C65.0968 182.689 64.9489 183.419 64.9489 184.364C64.9489 184.993 65.0152 185.528 65.1477 185.969C65.2803 186.409 65.4709 186.744 65.7195 186.974C65.9704 187.203 66.2723 187.318 66.625 187.318ZM72.875 188.099C72.34 188.099 71.8842 187.954 71.5078 187.663C71.1314 187.369 70.8438 186.944 70.6449 186.388C70.446 185.829 70.3466 185.154 70.3466 184.364C70.3466 183.578 70.446 182.906 70.6449 182.35C70.8461 181.791 71.1349 181.365 71.5114 181.072C71.8902 180.776 72.3447 180.628 72.875 180.628C73.4053 180.628 73.8587 180.776 74.2351 181.072C74.6139 181.365 74.9027 181.791 75.1016 182.35C75.3028 182.906 75.4034 183.578 75.4034 184.364C75.4034 185.154 75.304 185.829 75.1051 186.388C74.9062 186.944 74.6186 187.369 74.2422 187.663C73.8658 187.954 73.41 188.099 72.875 188.099ZM72.875 187.318C73.4053 187.318 73.8172 187.062 74.1108 186.551C74.4044 186.04 74.5511 185.311 74.5511 184.364C74.5511 183.734 74.4837 183.198 74.3487 182.755C74.2161 182.312 74.0244 181.975 73.7734 181.743C73.5249 181.511 73.2254 181.395 72.875 181.395C72.3494 181.395 71.9387 181.654 71.6428 182.173C71.3468 182.689 71.1989 183.419 71.1989 184.364C71.1989 184.993 71.2652 185.528 71.3977 185.969C71.5303 186.409 71.7209 186.744 71.9695 186.974C72.2204 187.203 72.5223 187.318 72.875 187.318Z" fill="#201E29"/>
<line x1="84" y1="183.5" x2="715" y2="183.5" stroke="#8492A6" stroke-opacity="0.3"/>
<path d="M51.9482 150V149.361L54.3487 146.733C54.6304 146.425 54.8625 146.158 55.0447 145.93C55.227 145.701 55.362 145.485 55.4496 145.284C55.5395 145.08 55.5845 144.867 55.5845 144.645C55.5845 144.389 55.523 144.168 55.3999 143.981C55.2791 143.794 55.1134 143.649 54.9027 143.548C54.692 143.446 54.4553 143.395 54.1925 143.395C53.9131 143.395 53.6693 143.453 53.4609 143.569C53.255 143.683 53.0952 143.842 52.9815 144.048C52.8703 144.254 52.8146 144.496 52.8146 144.773H51.9766C51.9766 144.347 52.0748 143.973 52.2713 143.651C52.4678 143.329 52.7353 143.078 53.0739 142.898C53.4148 142.718 53.7971 142.628 54.2209 142.628C54.647 142.628 55.0246 142.718 55.3537 142.898C55.6828 143.078 55.9408 143.32 56.1278 143.626C56.3149 143.931 56.4084 144.271 56.4084 144.645C56.4084 144.912 56.3598 145.174 56.2628 145.43C56.1681 145.683 56.0024 145.966 55.7656 146.278C55.5312 146.589 55.2057 146.967 54.7891 147.415L53.1555 149.162V149.219H56.5362V150H51.9482ZM60.375 150.099C59.84 150.099 59.3842 149.954 59.0078 149.663C58.6314 149.369 58.3438 148.944 58.1449 148.388C57.946 147.829 57.8466 147.154 57.8466 146.364C57.8466 145.578 57.946 144.906 58.1449 144.35C58.3461 143.791 58.6349 143.365 59.0114 143.072C59.3902 142.776 59.8447 142.628 60.375 142.628C60.9053 142.628 61.3587 142.776 61.7351 143.072C62.1139 143.365 62.4027 143.791 62.6016 144.35C62.8028 144.906 62.9034 145.578 62.9034 146.364C62.9034 147.154 62.804 147.829 62.6051 148.388C62.4062 148.944 62.1186 149.369 61.7422 149.663C61.3658 149.954 60.91 150.099 60.375 150.099ZM60.375 149.318C60.9053 149.318 61.3172 149.062 61.6108 148.551C61.9044 148.04 62.0511 147.311 62.0511 146.364C62.0511 145.734 61.9837 145.198 61.8487 144.755C61.7161 144.312 61.5244 143.975 61.2734 143.743C61.0249 143.511 60.7254 143.395 60.375 143.395C59.8494 143.395 59.4387 143.654 59.1428 144.173C58.8468 144.689 58.6989 145.419 58.6989 146.364C58.6989 146.993 58.7652 147.528 58.8977 147.969C59.0303 148.409 59.2209 148.744 59.4695 148.974C59.7204 149.203 60.0223 149.318 60.375 149.318ZM66.625 150.099C66.09 150.099 65.6342 149.954 65.2578 149.663C64.8814 149.369 64.5938 148.944 64.3949 148.388C64.196 147.829 64.0966 147.154 64.0966 146.364C64.0966 145.578 64.196 144.906 64.3949 144.35C64.5961 143.791 64.8849 143.365 65.2614 143.072C65.6402 142.776 66.0947 142.628 66.625 142.628C67.1553 142.628 67.6087 142.776 67.9851 143.072C68.3639 143.365 68.6527 143.791 68.8516 144.35C69.0528 144.906 69.1534 145.578 69.1534 146.364C69.1534 147.154 69.054 147.829 68.8551 148.388C68.6562 148.944 68.3686 149.369 67.9922 149.663C67.6158 149.954 67.16 150.099 66.625 150.099ZM66.625 149.318C67.1553 149.318 67.5672 149.062 67.8608 148.551C68.1544 148.04 68.3011 147.311 68.3011 146.364C68.3011 145.734 68.2337 145.198 68.0987 144.755C67.9661 144.312 67.7744 143.975 67.5234 143.743C67.2749 143.511 66.9754 143.395 66.625 143.395C66.0994 143.395 65.6887 143.654 65.3928 144.173C65.0968 144.689 64.9489 145.419 64.9489 146.364C64.9489 146.993 65.0152 147.528 65.1477 147.969C65.2803 148.409 65.4709 148.744 65.7195 148.974C65.9704 149.203 66.2723 149.318 66.625 149.318ZM72.875 150.099C72.34 150.099 71.8842 149.954 71.5078 149.663C71.1314 149.369 70.8438 148.944 70.6449 148.388C70.446 147.829 70.3466 147.154 70.3466 146.364C70.3466 145.578 70.446 144.906 70.6449 144.35C70.8461 143.791 71.1349 143.365 71.5114 143.072C71.8902 142.776 72.3447 142.628 72.875 142.628C73.4053 142.628 73.8587 142.776 74.2351 143.072C74.6139 143.365 74.9027 143.791 75.1016 144.35C75.3028 144.906 75.4034 145.578 75.4034 146.364C75.4034 147.154 75.304 147.829 75.1051 148.388C74.9062 148.944 74.6186 149.369 74.2422 149.663C73.8658 149.954 73.41 150.099 72.875 150.099ZM72.875 149.318C73.4053 149.318 73.8172 149.062 74.1108 148.551C74.4044 148.04 74.5511 147.311 74.5511 146.364C74.5511 145.734 74.4837 145.198 74.3487 144.755C74.2161 144.312 74.0244 143.975 73.7734 143.743C73.5249 143.511 73.2254 143.395 72.875 143.395C72.3494 143.395 71.9387 143.654 71.6428 144.173C71.3468 144.689 71.1989 145.419 71.1989 146.364C71.1989 146.993 71.2652 147.528 71.3977 147.969C71.5303 148.409 71.7209 148.744 71.9695 148.974C72.2204 149.203 72.5223 149.318 72.875 149.318Z" fill="#201E29"/>
<line x1="84" y1="145.5" x2="715" y2="145.5" stroke="#8492A6" stroke-opacity="0.3"/>
<path d="M52.1142 112V111.361L54.5147 108.733C54.7965 108.425 55.0285 108.158 55.2108 107.93C55.3931 107.701 55.528 107.485 55.6156 107.284C55.7056 107.08 55.7505 106.867 55.7505 106.645C55.7505 106.389 55.689 106.168 55.5659 105.981C55.4451 105.794 55.2794 105.649 55.0687 105.548C54.858 105.446 54.6213 105.395 54.3585 105.395C54.0791 105.395 53.8353 105.453 53.627 105.569C53.421 105.683 53.2612 105.842 53.1475 106.048C53.0363 106.254 52.9806 106.496 52.9806 106.773H52.1426C52.1426 106.347 52.2408 105.973 52.4373 105.651C52.6338 105.329 52.9013 105.078 53.2399 104.898C53.5808 104.718 53.9631 104.628 54.3869 104.628C54.813 104.628 55.1906 104.718 55.5197 104.898C55.8488 105.078 56.1068 105.32 56.2939 105.626C56.4809 105.931 56.5744 106.271 56.5744 106.645C56.5744 106.912 56.5259 107.174 56.4288 107.43C56.3341 107.683 56.1684 107.966 55.9316 108.278C55.6973 108.589 55.3717 108.967 54.9551 109.415L53.3216 111.162V111.219H56.7022V112H52.1142ZM60.4416 112.099C60.0249 112.099 59.6497 112.017 59.3159 111.851C58.9821 111.685 58.7145 111.458 58.5133 111.169C58.3121 110.88 58.202 110.551 58.1831 110.182H59.0353C59.0685 110.511 59.2176 110.783 59.4828 110.999C59.7503 111.212 60.0699 111.318 60.4416 111.318C60.7399 111.318 61.005 111.248 61.237 111.109C61.4714 110.969 61.6549 110.777 61.7875 110.533C61.9224 110.287 61.9899 110.009 61.9899 109.699C61.9899 109.382 61.92 109.099 61.7804 108.85C61.6431 108.599 61.4537 108.402 61.2122 108.257C60.9707 108.113 60.6949 108.039 60.3848 108.037C60.1622 108.035 59.9338 108.069 59.6994 108.14C59.465 108.209 59.2721 108.297 59.1206 108.406L58.2967 108.307L58.737 104.727H62.5154V105.509H59.4757L59.22 107.653H59.2626C59.4118 107.535 59.5988 107.437 59.8237 107.359C60.0486 107.281 60.283 107.241 60.5268 107.241C60.9719 107.241 61.3684 107.348 61.7164 107.561C62.0668 107.772 62.3414 108.061 62.5403 108.428C62.7415 108.795 62.8422 109.214 62.8422 109.685C62.8422 110.149 62.738 110.563 62.5297 110.928C62.3237 111.29 62.0396 111.576 61.6774 111.787C61.3152 111.995 60.9032 112.099 60.4416 112.099ZM66.625 112.099C66.09 112.099 65.6342 111.954 65.2578 111.663C64.8814 111.369 64.5938 110.944 64.3949 110.388C64.196 109.829 64.0966 109.154 64.0966 108.364C64.0966 107.578 64.196 106.906 64.3949 106.35C64.5961 105.791 64.8849 105.365 65.2614 105.072C65.6402 104.776 66.0947 104.628 66.625 104.628C67.1553 104.628 67.6087 104.776 67.9851 105.072C68.3639 105.365 68.6527 105.791 68.8516 106.35C69.0528 106.906 69.1534 107.578 69.1534 108.364C69.1534 109.154 69.054 109.829 68.8551 110.388C68.6562 110.944 68.3686 111.369 67.9922 111.663C67.6158 111.954 67.16 112.099 66.625 112.099ZM66.625 111.318C67.1553 111.318 67.5672 111.062 67.8608 110.551C68.1544 110.04 68.3011 109.311 68.3011 108.364C68.3011 107.734 68.2337 107.198 68.0987 106.755C67.9661 106.312 67.7744 105.975 67.5234 105.743C67.2749 105.511 66.9754 105.395 66.625 105.395C66.0994 105.395 65.6887 105.654 65.3928 106.173C65.0968 106.689 64.9489 107.419 64.9489 108.364C64.9489 108.993 65.0152 109.528 65.1477 109.969C65.2803 110.409 65.4709 110.744 65.7195 110.974C65.9704 111.203 66.2723 111.318 66.625 111.318ZM72.875 112.099C72.34 112.099 71.8842 111.954 71.5078 111.663C71.1314 111.369 70.8438 110.944 70.6449 110.388C70.446 109.829 70.3466 109.154 70.3466 108.364C70.3466 107.578 70.446 106.906 70.6449 106.35C70.8461 105.791 71.1349 105.365 71.5114 105.072C71.8902 104.776 72.3447 104.628 72.875 104.628C73.4053 104.628 73.8587 104.776 74.2351 105.072C74.6139 105.365 74.9027 105.791 75.1016 106.35C75.3028 106.906 75.4034 107.578 75.4034 108.364C75.4034 109.154 75.304 109.829 75.1051 110.388C74.9062 110.944 74.6186 111.369 74.2422 111.663C73.8658 111.954 73.41 112.099 72.875 112.099ZM72.875 111.318C73.4053 111.318 73.8172 111.062 74.1108 110.551C74.4044 110.04 74.5511 109.311 74.5511 108.364C74.5511 107.734 74.4837 107.198 74.3487 106.755C74.2161 106.312 74.0244 105.975 73.7734 105.743C73.5249 105.511 73.2254 105.395 72.875 105.395C72.3494 105.395 71.9387 105.654 71.6428 106.173C71.3468 106.689 71.1989 107.419 71.1989 108.364C71.1989 108.993 71.2652 109.528 71.3977 109.969C71.5303 110.409 71.7209 110.744 71.9695 110.974C72.2204 111.203 72.5223 111.318 72.875 111.318Z" fill="#201E29"/>
<line x1="84" y1="107.5" x2="715" y2="107.5" stroke="#8492A6" stroke-opacity="0.3"/>
<path d="M54.093 74.0994C53.6243 74.0994 53.2064 74.0189 52.8395 73.858C52.4749 73.697 52.1849 73.4732 51.9695 73.1868C51.7564 72.898 51.6404 72.563 51.6214 72.1818H52.5163C52.5353 72.4162 52.6158 72.6186 52.7578 72.7891C52.8999 72.9571 53.0857 73.0874 53.3153 73.1797C53.545 73.272 53.7995 73.3182 54.0788 73.3182C54.3913 73.3182 54.6683 73.2637 54.9098 73.1548C55.1513 73.0459 55.3407 72.8944 55.478 72.7003C55.6153 72.5062 55.6839 72.2812 55.6839 72.0256C55.6839 71.758 55.6177 71.5225 55.4851 71.3189C55.3525 71.1129 55.1584 70.9519 54.9027 70.8359C54.647 70.7199 54.3345 70.6619 53.9652 70.6619H53.3828V69.8807H53.9652C54.254 69.8807 54.5073 69.8286 54.7251 69.7244C54.9453 69.6203 55.117 69.4735 55.2401 69.2841C55.3655 69.0947 55.4283 68.8722 55.4283 68.6165C55.4283 68.3703 55.3738 68.156 55.2649 67.9737C55.156 67.7914 55.0021 67.6494 54.8033 67.5476C54.6068 67.4458 54.3748 67.3949 54.1072 67.3949C53.8563 67.3949 53.6196 67.4411 53.397 67.5334C53.1768 67.6233 52.9969 67.7547 52.8572 67.9276C52.7176 68.098 52.6418 68.304 52.63 68.5455H51.7777C51.7919 68.1643 51.9067 67.8305 52.1222 67.544C52.3376 67.2552 52.6193 67.0303 52.9673 66.8693C53.3177 66.7083 53.7024 66.6278 54.1214 66.6278C54.5713 66.6278 54.9571 66.719 55.2791 66.9013C55.6011 67.0812 55.8485 67.3191 56.0213 67.6151C56.1941 67.911 56.2805 68.2306 56.2805 68.5739C56.2805 68.9834 56.1728 69.3326 55.9574 69.6214C55.7443 69.9103 55.4543 70.1103 55.0874 70.2216V70.2784C55.5466 70.3542 55.9053 70.5495 56.1634 70.8643C56.4214 71.1768 56.5504 71.5639 56.5504 72.0256C56.5504 72.4209 56.4427 72.776 56.2273 73.0909C56.0142 73.4034 55.723 73.6496 55.3537 73.8295C54.9844 74.0095 54.5642 74.0994 54.093 74.0994ZM60.375 74.0994C59.84 74.0994 59.3842 73.9538 59.0078 73.6626C58.6314 73.3691 58.3438 72.9441 58.1449 72.3878C57.946 71.8291 57.8466 71.1544 57.8466 70.3636C57.8466 69.5777 57.946 68.9065 58.1449 68.3501C58.3461 67.7914 58.6349 67.3653 59.0114 67.0717C59.3902 66.7758 59.8447 66.6278 60.375 66.6278C60.9053 66.6278 61.3587 66.7758 61.7351 67.0717C62.1139 67.3653 62.4027 67.7914 62.6016 68.3501C62.8028 68.9065 62.9034 69.5777 62.9034 70.3636C62.9034 71.1544 62.804 71.8291 62.6051 72.3878C62.4062 72.9441 62.1186 73.3691 61.7422 73.6626C61.3658 73.9538 60.91 74.0994 60.375 74.0994ZM60.375 73.3182C60.9053 73.3182 61.3172 73.0625 61.6108 72.5511C61.9044 72.0398 62.0511 71.3106 62.0511 70.3636C62.0511 69.7339 61.9837 69.1977 61.8487 68.755C61.7161 68.3123 61.5244 67.9749 61.2734 67.7429C61.0249 67.5109 60.7254 67.3949 60.375 67.3949C59.8494 67.3949 59.4387 67.6541 59.1428 68.1726C58.8468 68.6887 58.6989 69.419 58.6989 70.3636C58.6989 70.9934 58.7652 71.5284 58.8977 71.9688C59.0303 72.4091 59.2209 72.7441 59.4695 72.9737C59.7204 73.2034 60.0223 73.3182 60.375 73.3182ZM66.625 74.0994C66.09 74.0994 65.6342 73.9538 65.2578 73.6626C64.8814 73.3691 64.5938 72.9441 64.3949 72.3878C64.196 71.8291 64.0966 71.1544 64.0966 70.3636C64.0966 69.5777 64.196 68.9065 64.3949 68.3501C64.5961 67.7914 64.8849 67.3653 65.2614 67.0717C65.6402 66.7758 66.0947 66.6278 66.625 66.6278C67.1553 66.6278 67.6087 66.7758 67.9851 67.0717C68.3639 67.3653 68.6527 67.7914 68.8516 68.3501C69.0528 68.9065 69.1534 69.5777 69.1534 70.3636C69.1534 71.1544 69.054 71.8291 68.8551 72.3878C68.6562 72.9441 68.3686 73.3691 67.9922 73.6626C67.6158 73.9538 67.16 74.0994 66.625 74.0994ZM66.625 73.3182C67.1553 73.3182 67.5672 73.0625 67.8608 72.5511C68.1544 72.0398 68.3011 71.3106 68.3011 70.3636C68.3011 69.7339 68.2337 69.1977 68.0987 68.755C67.9661 68.3123 67.7744 67.9749 67.5234 67.7429C67.2749 67.5109 66.9754 67.3949 66.625 67.3949C66.0994 67.3949 65.6887 67.6541 65.3928 68.1726C65.0968 68.6887 64.9489 69.419 64.9489 70.3636C64.9489 70.9934 65.0152 71.5284 65.1477 71.9688C65.2803 72.4091 65.4709 72.7441 65.7195 72.9737C65.9704 73.2034 66.2723 73.3182 66.625 73.3182ZM72.875 74.0994C72.34 74.0994 71.8842 73.9538 71.5078 73.6626C71.1314 73.3691 70.8438 72.9441 70.6449 72.3878C70.446 71.8291 70.3466 71.1544 70.3466 70.3636C70.3466 69.5777 70.446 68.9065 70.6449 68.3501C70.8461 67.7914 71.1349 67.3653 71.5114 67.0717C71.8902 66.7758 72.3447 66.6278 72.875 66.6278C73.4053 66.6278 73.8587 66.7758 74.2351 67.0717C74.6139 67.3653 74.9027 67.7914 75.1016 68.3501C75.3028 68.9065 75.4034 69.5777 75.4034 70.3636C75.4034 71.1544 75.304 71.8291 75.1051 72.3878C74.9062 72.9441 74.6186 73.3691 74.2422 73.6626C73.8658 73.9538 73.41 74.0994 72.875 74.0994ZM72.875 73.3182C73.4053 73.3182 73.8172 73.0625 74.1108 72.5511C74.4044 72.0398 74.5511 71.3106 74.5511 70.3636C74.5511 69.7339 74.4837 69.1977 74.3487 68.755C74.2161 68.3123 74.0244 67.9749 73.7734 67.7429C73.5249 67.5109 73.2254 67.3949 72.875 67.3949C72.3494 67.3949 71.9387 67.6541 71.6428 68.1726C71.3468 68.6887 71.1989 69.419 71.1989 70.3636C71.1989 70.9934 71.2652 71.5284 71.3977 71.9688C71.5303 72.4091 71.7209 72.7441 71.9695 72.9737C72.2204 73.2034 72.5223 73.3182 72.875 73.3182Z" fill="#201E29"/>
<line x1="84" y1="69.5" x2="715" y2="69.5" stroke="#8492A6" stroke-opacity="0.3"/>
<path d="M100 288C100 288 122.987 233.154 154.5 224.5C191.471 214.347 204.735 264.608 243 267C321.881 271.931 301.752 125.235 380.5 118.5C437.193 113.652 456.604 178.711 513.5 178C587.526 177.075 671 72.5 671 72.5" stroke="#8EB48E" stroke-width="2"/>
<path opacity="0.2" d="M359 124V297.5" stroke="#121212" stroke-dasharray="9 9"/>
<circle cx="358.5" cy="234.5" r="6.5" fill="#E6BE7C"/>
<circle cx="359.5" cy="123.5" r="6.5" fill="#8EB48E"/>
<g filter="url(#filter0_d_596_23515)">
<rect x="358" y="137" width="169" height="91" fill="white"/>
<rect x="358.5" y="137.5" width="168" height="90" stroke="#8492A6" stroke-opacity="0.3"/>
</g>
<path d="M370.227 154.273H371.386L372.358 155.551L372.614 155.892L374.062 157.818H372.903L371.949 156.54L371.71 156.216L370.227 154.273ZM374.42 152.636C374.42 153.557 374.254 154.352 373.922 155.023C373.589 155.693 373.134 156.21 372.554 156.574C371.974 156.938 371.313 157.119 370.568 157.119C369.824 157.119 369.162 156.938 368.582 156.574C368.003 156.21 367.547 155.693 367.214 155.023C366.882 154.352 366.716 153.557 366.716 152.636C366.716 151.716 366.882 150.92 367.214 150.25C367.547 149.58 368.003 149.062 368.582 148.699C369.162 148.335 369.824 148.153 370.568 148.153C371.313 148.153 371.974 148.335 372.554 148.699C373.134 149.062 373.589 149.58 373.922 150.25C374.254 150.92 374.42 151.716 374.42 152.636ZM373.398 152.636C373.398 151.881 373.271 151.243 373.018 150.723C372.768 150.203 372.429 149.81 372 149.543C371.574 149.276 371.097 149.142 370.568 149.142C370.04 149.142 369.561 149.276 369.132 149.543C368.706 149.81 368.366 150.203 368.114 150.723C367.864 151.243 367.739 151.881 367.739 152.636C367.739 153.392 367.864 154.03 368.114 154.55C368.366 155.07 368.706 155.463 369.132 155.73C369.561 155.997 370.04 156.131 370.568 156.131C371.097 156.131 371.574 155.997 372 155.73C372.429 155.463 372.768 155.07 373.018 154.55C373.271 154.03 373.398 153.392 373.398 152.636ZM380.186 154.324V150.455H381.192V157H380.186V155.892H380.118C379.964 156.224 379.726 156.507 379.402 156.74C379.078 156.97 378.669 157.085 378.175 157.085C377.766 157.085 377.402 156.996 377.084 156.817C376.766 156.635 376.516 156.362 376.334 155.999C376.152 155.632 376.061 155.17 376.061 154.614V150.455H377.067V154.545C377.067 155.023 377.2 155.403 377.467 155.688C377.737 155.972 378.081 156.114 378.499 156.114C378.749 156.114 379.003 156.05 379.261 155.922C379.523 155.794 379.741 155.598 379.918 155.334C380.097 155.07 380.186 154.733 380.186 154.324ZM383.034 157V150.455H384.039V157H383.034ZM383.545 149.364C383.349 149.364 383.18 149.297 383.038 149.163C382.899 149.03 382.829 148.869 382.829 148.682C382.829 148.494 382.899 148.334 383.038 148.2C383.18 148.067 383.349 148 383.545 148C383.741 148 383.909 148.067 384.048 148.2C384.19 148.334 384.261 148.494 384.261 148.682C384.261 148.869 384.19 149.03 384.048 149.163C383.909 149.297 383.741 149.364 383.545 149.364ZM385.694 157V156.233L389.41 151.46V151.392H385.813V150.455H390.705V151.256L387.092 155.994V156.062H390.825V157H385.694ZM399.055 154.273H400.214L401.186 155.551L401.442 155.892L402.891 157.818H401.732L400.777 156.54L400.538 156.216L399.055 154.273ZM403.249 152.636C403.249 153.557 403.082 154.352 402.75 155.023C402.418 155.693 401.962 156.21 401.382 156.574C400.803 156.938 400.141 157.119 399.396 157.119C398.652 157.119 397.99 156.938 397.411 156.574C396.831 156.21 396.375 155.693 396.043 155.023C395.71 154.352 395.544 153.557 395.544 152.636C395.544 151.716 395.71 150.92 396.043 150.25C396.375 149.58 396.831 149.062 397.411 148.699C397.99 148.335 398.652 148.153 399.396 148.153C400.141 148.153 400.803 148.335 401.382 148.699C401.962 149.062 402.418 149.58 402.75 150.25C403.082 150.92 403.249 151.716 403.249 152.636ZM402.226 152.636C402.226 151.881 402.099 151.243 401.847 150.723C401.597 150.203 401.257 149.81 400.828 149.543C400.402 149.276 399.925 149.142 399.396 149.142C398.868 149.142 398.389 149.276 397.96 149.543C397.534 149.81 397.195 150.203 396.942 150.723C396.692 151.243 396.567 151.881 396.567 152.636C396.567 153.392 396.692 154.03 396.942 154.55C397.195 155.07 397.534 155.463 397.96 155.73C398.389 155.997 398.868 156.131 399.396 156.131C399.925 156.131 400.402 155.997 400.828 155.73C401.257 155.463 401.597 155.07 401.847 154.55C402.099 154.03 402.226 153.392 402.226 152.636ZM407.77 157.119C407.412 157.114 407.054 157.045 406.696 156.915C406.338 156.784 406.011 156.564 405.716 156.254C405.42 155.942 405.183 155.52 405.004 154.989C404.825 154.455 404.736 153.784 404.736 152.977C404.736 152.205 404.808 151.52 404.953 150.923C405.098 150.324 405.308 149.82 405.584 149.411C405.859 148.999 406.192 148.686 406.581 148.473C406.973 148.26 407.415 148.153 407.906 148.153C408.395 148.153 408.83 148.251 409.21 148.447C409.594 148.641 409.906 148.911 410.148 149.257C410.389 149.604 410.545 150.003 410.616 150.455H409.577C409.48 150.062 409.293 149.737 409.014 149.479C408.736 149.22 408.366 149.091 407.906 149.091C407.23 149.091 406.697 149.385 406.308 149.973C405.922 150.561 405.727 151.386 405.724 152.449H405.793C405.952 152.207 406.141 152.001 406.359 151.831C406.581 151.658 406.825 151.524 407.092 151.43C407.359 151.337 407.642 151.29 407.94 151.29C408.44 151.29 408.898 151.415 409.312 151.665C409.727 151.912 410.06 152.254 410.31 152.692C410.56 153.126 410.685 153.625 410.685 154.188C410.685 154.727 410.564 155.222 410.322 155.67C410.081 156.116 409.741 156.472 409.304 156.736C408.869 156.997 408.358 157.125 407.77 157.119ZM407.77 156.182C408.128 156.182 408.449 156.092 408.733 155.913C409.02 155.734 409.246 155.494 409.411 155.193C409.578 154.892 409.662 154.557 409.662 154.188C409.662 153.827 409.581 153.499 409.419 153.203C409.26 152.905 409.04 152.668 408.759 152.491C408.48 152.315 408.162 152.227 407.804 152.227C407.534 152.227 407.283 152.281 407.05 152.389C406.817 152.494 406.612 152.639 406.436 152.824C406.263 153.009 406.126 153.22 406.027 153.459C405.928 153.695 405.878 153.943 405.878 154.205C405.878 154.551 405.959 154.875 406.121 155.176C406.286 155.477 406.51 155.72 406.794 155.905C407.081 156.089 407.406 156.182 407.77 156.182Z" fill="#201E29"/>
<line x1="359" y1="167.5" x2="527" y2="167.5" stroke="#8492A6" stroke-opacity="0.3"/>
<path opacity="0.7" d="M387.055 188.983L386.928 181.711L389.385 181.669C389.956 181.659 390.424 181.753 390.789 181.953C391.158 182.15 391.432 182.421 391.613 182.766C391.795 183.111 391.889 183.498 391.897 183.926C391.904 184.355 391.823 184.746 391.654 185.099C391.487 185.452 391.225 185.736 390.866 185.951C390.508 186.163 390.046 186.274 389.48 186.284L387.719 186.315L387.705 185.534L389.438 185.503C389.828 185.497 390.141 185.424 390.375 185.285C390.61 185.146 390.778 184.96 390.881 184.729C390.985 184.495 391.035 184.233 391.03 183.941C391.025 183.65 390.966 183.391 390.853 183.163C390.743 182.935 390.567 182.758 390.325 182.632C390.084 182.504 389.766 182.443 389.37 182.45L387.822 182.477L387.936 188.968L387.055 188.983ZM394.895 188.974C394.55 188.98 394.235 188.921 393.951 188.795C393.667 188.668 393.44 188.481 393.27 188.235C393.1 187.987 393.012 187.686 393.005 187.331C393 187.018 393.057 186.764 393.177 186.568C393.297 186.369 393.458 186.212 393.662 186.097C393.866 185.983 394.092 185.896 394.34 185.837C394.59 185.776 394.841 185.726 395.094 185.689C395.424 185.641 395.692 185.604 395.898 185.579C396.106 185.552 396.257 185.51 396.35 185.454C396.446 185.398 396.493 185.302 396.491 185.167L396.49 185.139C396.484 184.789 396.384 184.518 396.189 184.327C395.996 184.136 395.707 184.044 395.321 184.051C394.921 184.058 394.609 184.151 394.384 184.33C394.16 184.509 394.004 184.699 393.915 184.9L393.115 184.63C393.251 184.296 393.436 184.034 393.669 183.846C393.905 183.654 394.163 183.52 394.444 183.441C394.726 183.361 395.005 183.318 395.279 183.313C395.455 183.31 395.656 183.328 395.884 183.367C396.114 183.403 396.337 183.483 396.553 183.607C396.77 183.731 396.952 183.921 397.099 184.176C397.245 184.432 397.322 184.776 397.33 185.209L397.393 188.803L396.555 188.817L396.542 188.079L396.499 188.08C396.444 188.199 396.352 188.327 396.222 188.464C396.092 188.602 395.917 188.719 395.699 188.818C395.48 188.917 395.212 188.969 394.895 188.974ZM395.01 188.219C395.341 188.213 395.619 188.143 395.844 188.009C396.072 187.875 396.242 187.704 396.354 187.496C396.469 187.288 396.524 187.07 396.52 186.843L396.507 186.076C396.472 186.119 396.395 186.16 396.275 186.197C396.157 186.233 396.02 186.265 395.864 186.293C395.711 186.32 395.561 186.344 395.414 186.365C395.27 186.384 395.153 186.401 395.064 186.414C394.846 186.446 394.644 186.496 394.455 186.563C394.269 186.628 394.12 186.724 394.006 186.852C393.894 186.977 393.84 187.146 393.844 187.359C393.849 187.65 393.961 187.868 394.179 188.013C394.399 188.156 394.676 188.225 395.01 188.219ZM402.711 184.476L401.962 184.702C401.913 184.578 401.841 184.457 401.746 184.34C401.654 184.221 401.529 184.124 401.372 184.049C401.214 183.973 401.014 183.938 400.77 183.942C400.436 183.948 400.159 184.029 399.939 184.187C399.722 184.343 399.615 184.537 399.619 184.772C399.623 184.98 399.702 185.143 399.855 185.261C400.009 185.379 400.247 185.476 400.571 185.551L401.384 185.735C401.873 185.845 402.24 186.02 402.483 186.26C402.726 186.497 402.851 186.806 402.858 187.187C402.863 187.5 402.778 187.78 402.603 188.03C402.43 188.279 402.184 188.478 401.867 188.625C401.55 188.773 401.18 188.85 400.756 188.858C400.2 188.867 399.737 188.755 399.369 188.52C399 188.284 398.763 187.936 398.658 187.474L399.45 187.261C399.531 187.553 399.678 187.771 399.891 187.914C400.106 188.057 400.386 188.125 400.729 188.119C401.12 188.113 401.428 188.024 401.655 187.855C401.884 187.682 401.996 187.479 401.992 187.245C401.989 187.056 401.92 186.898 401.785 186.773C401.65 186.645 401.445 186.551 401.169 186.492L400.257 186.295C399.755 186.185 399.385 186.008 399.147 185.764C398.91 185.517 398.789 185.205 398.782 184.829C398.777 184.521 398.858 184.248 399.027 184.008C399.198 183.768 399.433 183.578 399.731 183.438C400.032 183.298 400.374 183.224 400.757 183.218C401.297 183.208 401.723 183.319 402.034 183.55C402.349 183.782 402.574 184.09 402.711 184.476ZM407.935 184.385L407.186 184.611C407.136 184.487 407.065 184.366 406.97 184.249C406.878 184.13 406.753 184.033 406.596 183.957C406.438 183.882 406.237 183.846 405.994 183.851C405.66 183.856 405.383 183.938 405.163 184.096C404.946 184.251 404.839 184.446 404.843 184.681C404.847 184.889 404.925 185.052 405.079 185.17C405.233 185.288 405.471 185.385 405.794 185.46L406.607 185.644C407.097 185.754 407.464 185.929 407.707 186.168C407.95 186.406 408.075 186.715 408.082 187.096C408.087 187.408 408.002 187.689 407.827 187.939C407.653 188.188 407.408 188.386 407.091 188.534C406.774 188.682 406.404 188.759 405.98 188.766C405.424 188.776 404.961 188.663 404.592 188.428C404.224 188.193 403.987 187.845 403.882 187.382L404.673 187.17C404.754 187.462 404.901 187.679 405.115 187.823C405.33 187.966 405.61 188.034 405.953 188.028C406.343 188.021 406.652 187.933 406.879 187.763C407.108 187.591 407.22 187.388 407.216 187.154C407.213 186.964 407.144 186.807 407.009 186.681C406.874 186.554 406.669 186.46 406.393 186.401L405.481 186.204C404.979 186.094 404.609 185.917 404.37 185.673C404.134 185.426 404.013 185.114 404.006 184.738C404.001 184.43 404.082 184.156 404.251 183.917C404.422 183.677 404.657 183.487 404.955 183.347C405.255 183.206 405.597 183.133 405.981 183.126C406.521 183.117 406.946 183.228 407.258 183.459C407.572 183.691 407.798 183.999 407.935 184.385Z" fill="#201E29"/>
<path opacity="0.7" d="M387.055 210.983L386.928 203.711L391.288 203.635L391.302 204.417L387.822 204.477L387.865 206.934L391.018 206.879L391.032 207.66L387.879 207.715L387.936 210.968L387.055 210.983ZM394.417 210.982C394.071 210.989 393.756 210.929 393.472 210.804C393.188 210.676 392.961 210.489 392.791 210.244C392.621 209.996 392.533 209.694 392.527 209.339C392.522 209.027 392.579 208.772 392.698 208.576C392.818 208.377 392.98 208.221 393.184 208.106C393.388 207.991 393.614 207.904 393.861 207.845C394.111 207.784 394.362 207.735 394.615 207.697C394.946 207.649 395.214 207.612 395.419 207.587C395.627 207.56 395.778 207.518 395.872 207.462C395.968 207.406 396.015 207.311 396.013 207.176L396.012 207.147C396.006 206.797 395.905 206.526 395.71 206.336C395.517 206.145 395.228 206.053 394.842 206.06C394.442 206.067 394.13 206.16 393.906 206.339C393.682 206.518 393.525 206.708 393.436 206.908L392.636 206.638C392.772 206.304 392.957 206.043 393.191 205.854C393.427 205.663 393.685 205.528 393.965 205.45C394.248 205.369 394.526 205.326 394.801 205.321C394.976 205.318 395.178 205.336 395.406 205.375C395.636 205.411 395.859 205.491 396.074 205.615C396.292 205.739 396.474 205.929 396.62 206.185C396.767 206.44 396.844 206.785 396.851 207.218L396.914 210.811L396.076 210.826L396.063 210.087L396.021 210.088C395.966 210.207 395.874 210.335 395.743 210.473C395.613 210.61 395.439 210.728 395.22 210.826C395.002 210.925 394.734 210.977 394.417 210.982ZM394.531 210.228C394.863 210.222 395.141 210.152 395.366 210.018C395.593 209.883 395.763 209.712 395.876 209.504C395.99 209.296 396.046 209.079 396.042 208.852L396.028 208.085C395.994 208.128 395.916 208.168 395.796 208.206C395.678 208.241 395.542 208.273 395.386 208.302C395.232 208.328 395.082 208.352 394.936 208.374C394.792 208.393 394.675 208.409 394.585 208.422C394.368 208.455 394.165 208.504 393.977 208.571C393.791 208.636 393.641 208.732 393.527 208.86C393.416 208.985 393.362 209.154 393.366 209.367C393.371 209.658 393.482 209.876 393.7 210.022C393.921 210.165 394.198 210.233 394.531 210.228ZM398.444 210.784L398.348 205.331L399.186 205.316L399.282 210.77L398.444 210.784ZM398.759 204.414C398.595 204.417 398.453 204.364 398.333 204.255C398.215 204.145 398.155 204.013 398.152 203.857C398.149 203.7 398.205 203.566 398.319 203.452C398.436 203.339 398.575 203.281 398.739 203.278C398.902 203.275 399.043 203.328 399.161 203.438C399.281 203.547 399.342 203.679 399.345 203.836C399.348 203.992 399.291 204.127 399.175 204.24C399.061 204.353 398.922 204.411 398.759 204.414ZM401.527 203.457L401.654 210.728L400.816 210.743L400.689 203.471L401.527 203.457Z" fill="#201E29"/>
<rect x="366" y="177" width="16" height="16" rx="8" fill="#8EB48E"/>
<rect x="366" y="199" width="16" height="16" rx="8" fill="#E6BE7C"/>
<path d="M416.049 189.984L416.032 189.029L418.931 185.918C419.241 185.581 419.496 185.285 419.696 185.031C419.899 184.775 420.049 184.532 420.148 184.303C420.246 184.074 420.293 183.832 420.288 183.576C420.283 183.286 420.211 183.038 420.071 182.83C419.931 182.619 419.742 182.459 419.504 182.35C419.266 182.237 419 182.184 418.704 182.189C418.392 182.194 418.12 182.263 417.89 182.395C417.659 182.527 417.483 182.71 417.362 182.945C417.241 183.18 417.184 183.454 417.189 183.767L415.932 183.789C415.923 183.257 416.037 182.791 416.274 182.389C416.512 181.987 416.841 181.673 417.264 181.447C417.686 181.218 418.168 181.099 418.711 181.089C419.259 181.08 419.744 181.18 420.165 181.392C420.589 181.6 420.922 181.89 421.165 182.261C421.407 182.629 421.532 183.047 421.54 183.516C421.546 183.84 421.491 184.158 421.374 184.469C421.26 184.781 421.057 185.13 420.766 185.516C420.474 185.899 420.067 186.365 419.545 186.914L417.843 188.759L417.844 188.823L421.773 188.754L421.792 189.883L416.049 189.984ZM423.407 189.855L423.39 188.901L426.29 185.79C426.599 185.452 426.854 185.156 427.054 184.903C427.257 184.646 427.408 184.404 427.506 184.175C427.604 183.946 427.651 183.703 427.647 183.448C427.642 183.158 427.569 182.909 427.429 182.701C427.289 182.491 427.1 182.331 426.862 182.221C426.625 182.109 426.358 182.055 426.063 182.06C425.75 182.066 425.479 182.135 425.248 182.266C425.017 182.398 424.841 182.582 424.72 182.817C424.6 183.052 424.542 183.326 424.547 183.638L423.29 183.66C423.281 183.129 423.395 182.662 423.632 182.261C423.87 181.859 424.2 181.545 424.622 181.318C425.044 181.089 425.526 180.97 426.069 180.961C426.617 180.951 427.102 181.052 427.523 181.263C427.948 181.472 428.281 181.762 428.523 182.133C428.765 182.501 428.891 182.919 428.899 183.388C428.904 183.711 428.849 184.029 428.732 184.341C428.618 184.653 428.415 185.001 428.124 185.387C427.832 185.77 427.425 186.236 426.904 186.785L425.201 188.63L425.202 188.694L429.131 188.626L429.15 189.755L423.407 189.855ZM433.806 189.818C433.132 189.827 432.554 189.66 432.071 189.316C431.587 188.972 431.214 188.466 430.949 187.797C430.684 187.128 430.544 186.319 430.527 185.371C430.511 184.425 430.623 183.615 430.864 182.94C431.108 182.265 431.466 181.747 431.937 181.387C432.411 181.026 432.981 180.84 433.649 180.828C434.316 180.817 434.892 180.984 435.375 181.331C435.859 181.675 436.232 182.18 436.497 182.846C436.764 183.509 436.906 184.313 436.923 185.259C436.939 186.211 436.827 187.025 436.586 187.703C436.345 188.378 435.989 188.897 435.518 189.26C435.047 189.621 434.476 189.807 433.806 189.818ZM433.786 188.681C434.377 188.671 434.833 188.374 435.155 187.792C435.481 187.209 435.634 186.373 435.615 185.282C435.602 184.558 435.515 183.947 435.352 183.45C435.193 182.949 434.969 182.573 434.681 182.319C434.395 182.063 434.057 181.938 433.668 181.945C433.08 181.955 432.624 182.253 432.299 182.838C431.974 183.423 431.819 184.26 431.835 185.348C431.848 186.075 431.934 186.689 432.093 187.189C432.255 187.686 432.479 188.062 432.765 188.315C433.051 188.566 433.391 188.688 433.786 188.681ZM441.551 189.683C440.877 189.692 440.299 189.525 439.816 189.181C439.332 188.837 438.958 188.331 438.694 187.662C438.429 186.993 438.289 186.184 438.272 185.236C438.256 184.29 438.368 183.479 438.609 182.805C438.853 182.13 439.211 181.612 439.682 181.252C440.155 180.891 440.726 180.705 441.394 180.693C442.061 180.682 442.637 180.849 443.12 181.196C443.603 181.54 443.977 182.045 444.242 182.711C444.509 183.374 444.651 184.178 444.668 185.124C444.684 186.075 444.572 186.89 444.331 187.568C444.09 188.242 443.734 188.762 443.263 189.125C442.792 189.485 442.221 189.672 441.551 189.683ZM441.531 188.546C442.122 188.535 442.578 188.239 442.9 187.657C443.226 187.074 443.379 186.238 443.36 185.147C443.347 184.422 443.259 183.812 443.097 183.314C442.938 182.814 442.714 182.437 442.426 182.184C442.14 181.928 441.802 181.803 441.413 181.809C440.825 181.82 440.369 182.118 440.044 182.703C439.719 183.288 439.564 184.125 439.58 185.213C439.593 185.94 439.679 186.554 439.838 187.054C440 187.551 440.224 187.926 440.51 188.18C440.796 188.431 441.136 188.553 441.531 188.546Z" fill="#201E29"/>
<path d="M418.999 212.051C418.389 212.062 417.847 211.966 417.375 211.764C416.905 211.562 416.535 211.279 416.265 210.914C415.994 210.55 415.856 210.131 415.851 209.66C415.841 209.291 415.911 208.95 416.059 208.638C416.209 208.322 416.416 208.059 416.68 207.847C416.943 207.632 417.239 207.493 417.568 207.431L417.567 207.38C417.13 207.282 416.778 207.055 416.511 206.699C416.243 206.343 416.107 205.93 416.101 205.462C416.091 205.016 416.201 204.616 416.434 204.263C416.669 203.906 416.995 203.623 417.412 203.414C417.829 203.205 418.306 203.096 418.843 203.087C419.374 203.078 419.85 203.172 420.271 203.369C420.695 203.563 421.031 203.834 421.278 204.182C421.526 204.527 421.655 204.922 421.666 205.365C421.671 205.833 421.545 206.25 421.287 206.616C421.029 206.981 420.689 207.22 420.268 207.332L420.269 207.384C420.597 207.435 420.893 207.563 421.158 207.769C421.426 207.971 421.64 208.228 421.802 208.537C421.966 208.844 422.053 209.182 422.063 209.551C422.068 210.023 421.942 210.446 421.684 210.82C421.426 211.194 421.065 211.49 420.6 211.708C420.138 211.926 419.604 212.041 418.999 212.051ZM418.98 210.973C419.341 210.967 419.653 210.902 419.915 210.778C420.177 210.651 420.378 210.479 420.519 210.26C420.66 210.039 420.73 209.782 420.728 209.49C420.719 209.186 420.635 208.919 420.475 208.688C420.317 208.458 420.105 208.279 419.839 208.15C419.572 208.021 419.269 207.959 418.928 207.965C418.584 207.971 418.28 208.043 418.015 208.182C417.751 208.32 417.544 208.507 417.394 208.742C417.245 208.978 417.175 209.248 417.183 209.551C417.185 209.844 417.259 210.098 417.405 210.315C417.553 210.528 417.762 210.693 418.031 210.811C418.301 210.926 418.617 210.98 418.98 210.973ZM418.91 206.913C419.199 206.908 419.455 206.845 419.678 206.725C419.9 206.604 420.073 206.439 420.198 206.23C420.325 206.02 420.387 205.776 420.385 205.498C420.378 205.225 420.308 204.988 420.177 204.785C420.048 204.583 419.871 204.428 419.644 204.322C419.418 204.212 419.157 204.16 418.862 204.165C418.561 204.17 418.297 204.231 418.072 204.349C417.85 204.464 417.678 204.624 417.556 204.831C417.435 205.038 417.378 205.277 417.386 205.55C417.388 205.829 417.454 206.07 417.586 206.275C417.717 206.481 417.896 206.639 418.123 206.752C418.352 206.864 418.614 206.918 418.91 206.913ZM426.67 211.943C425.997 211.952 425.419 211.784 424.935 211.441C424.452 211.097 424.078 210.59 423.813 209.922C423.549 209.253 423.408 208.444 423.392 207.495C423.375 206.549 423.487 205.739 423.729 205.064C423.973 204.39 424.33 203.872 424.801 203.511C425.275 203.151 425.846 202.965 426.513 202.953C427.181 202.941 427.756 203.109 428.24 203.456C428.723 203.799 429.097 204.304 429.361 204.97C429.629 205.633 429.77 206.438 429.787 207.384C429.804 208.335 429.691 209.15 429.45 209.827C429.209 210.502 428.853 211.021 428.382 211.385C427.911 211.745 427.34 211.931 426.67 211.943ZM426.65 210.805C427.241 210.795 427.698 210.499 428.02 209.916C428.345 209.334 428.498 208.497 428.479 207.407C428.466 206.682 428.379 206.071 428.217 205.574C428.058 205.074 427.834 204.697 427.545 204.444C427.259 204.187 426.922 204.062 426.533 204.069C425.945 204.079 425.488 204.377 425.163 204.963C424.838 205.548 424.684 206.385 424.7 207.472C424.712 208.2 424.798 208.813 424.958 209.313C425.12 209.811 425.344 210.186 425.629 210.44C425.915 210.69 426.255 210.812 426.65 210.805ZM434.415 211.808C433.742 211.817 433.163 211.649 432.68 211.305C432.197 210.961 431.823 210.455 431.558 209.786C431.294 209.118 431.153 208.309 431.137 207.36C431.12 206.414 431.232 205.604 431.473 204.929C431.717 204.254 432.075 203.737 432.546 203.376C433.02 203.016 433.591 202.829 434.258 202.818C434.926 202.806 435.501 202.974 435.984 203.32C436.468 203.664 436.842 204.169 437.106 204.835C437.374 205.498 437.515 206.303 437.532 207.248C437.549 208.2 437.436 209.015 437.195 209.692C436.954 210.367 436.598 210.886 436.127 211.249C435.656 211.61 435.085 211.796 434.415 211.808ZM434.395 210.67C434.986 210.66 435.443 210.364 435.765 209.781C436.09 209.199 436.243 208.362 436.224 207.271C436.211 206.547 436.124 205.936 435.962 205.439C435.802 204.939 435.578 204.562 435.29 204.308C435.004 204.052 434.667 203.927 434.278 203.934C433.69 203.944 433.233 204.242 432.908 204.827C432.583 205.413 432.428 206.249 432.445 207.337C432.457 208.064 432.543 208.678 432.703 209.178C432.865 209.675 433.089 210.051 433.374 210.304C433.66 210.555 434 210.677 434.395 210.67Z" fill="#201E29"/>
<defs>
<filter id="filter0_d_596_23515" x="347" y="133" width="191" height="113" filterUnits="userSpaceOnUse" color-interpolation-filters="sRGB">
<feFlood flood-opacity="0" result="BackgroundImageFix"/>
<feColorMatrix in="SourceAlpha" type="matrix" values="0 0 0 0 0 0 0 0 0 0 0 0 0 0 0 0 0 0 127 0" result="hardAlpha"/>
<feOffset dy="7"/>
<feGaussianBlur stdDeviation="5.5"/>
<feComposite in2="hardAlpha" operator="out"/>
<feColorMatrix type="matrix" values="0 0 0 0 0 0 0 0 0 0 0 0 0 0 0 0 0 0 0.05 0"/>
<feBlend mode="normal" in2="BackgroundImageFix" result="effect1_dropShadow_596_23515"/>
<feBlend mode="normal" in="SourceGraphic" in2="effect1_dropShadow_596_23515" result="shape"/>
</filter>
</defs>
</svg>
